<svg id="Réteg_1" data-name="Réteg 1" xmlns="http://www.w3.org/2000/svg" viewBox="0 0 402.65 482.89"><defs><style>.cls-1{fill:#fff;}</style></defs><title>Arrows_Around</title><path class="cls-1" d="M316.72,132.36V147.3a15.82,15.82,0,0,0,4.85,11.84c4.45,4.28,11.74,6.73,20,6.73a47.35,47.35,0,0,0,24-6.82l85-49.36c18.66-10.84,18.66-28.48,0-39.32L365.57,21a47.35,47.35,0,0,0-24-6.82c-12.38,0-24.88,5.74-24.88,18.57V46.33C196,50.47,96.07,104.26,81.22,174.68c-.83,3.93,3,7.7,9.37,9.16a25,25,0,0,0,5.52.61c4.68,0,9.21-1.27,12.11-3.57,39.83-31.6,103.79-50.47,171.09-50.47A359.55,359.55,0,0,1,316.72,132.36ZM124.59,145.52c32.65-48.42,113.91-82,207.13-82,8.28,0,15-3.89,15-8.71V34.69l82.66,48c7,4,7,10.63,0,14.68l-82.66,48v-20.1c0-4-4.78-7.54-11.55-8.47A411.14,411.14,0,0,0,279.31,113c-38.67,0-77.14,5.44-111.25,15.72A296.77,296.77,0,0,0,124.59,145.52Z" transform="translate(-61.94 -14.19)"/><path class="cls-1" d="M436,327.43c-6.35-1.46-13.6-.24-17.63,3-39.83,31.6-103.79,50.46-171.09,50.46a362.31,362.31,0,0,1-37.41-1.94V364c0-12.82-12.49-18.57-24.88-18.57a47.45,47.45,0,0,0-24,6.82l-85,49.37c-18.66,10.84-18.66,28.47,0,39.31l85,49.37a47.45,47.45,0,0,0,24,6.82c12.38,0,24.88-5.75,24.88-18.57V464.93C330.54,460.79,430.46,407,445.31,336.59,446.15,332.65,442.29,328.89,436,327.43ZM194.82,447.77c-8.28,0-15,3.9-15,8.71v20.09l-82.66-48c-7-4.05-7-10.64,0-14.68l82.67-48V386c0,4,4.78,7.55,11.55,8.48a412.86,412.86,0,0,0,55.86,3.8c38.67,0,77.14-5.43,111.25-15.71a296.21,296.21,0,0,0,43.46-16.81C369.29,414.16,288,447.77,194.82,447.77Z" transform="translate(-61.94 -14.19)"/></svg>