<svg id="Réteg_2" data-name="Réteg 2" xmlns="http://www.w3.org/2000/svg" viewBox="0 0 1137 493"><defs><style>.cls-1{fill:#e6e6e6;}</style></defs><title>Container</title><path class="cls-1" d="M1097.5,855.5c-150.85,0-292.55-25.42-399-71.58C647.18,761.67,607,735.86,579,707.21c-28.23-28.94-42.54-59.46-42.54-90.71s14.31-61.77,42.54-90.71c28-28.65,68.14-54.46,119.45-76.71,106.46-46.16,248.16-71.58,399-71.58s292.55,25.42,399,71.58c51.31,22.25,91.5,48.06,119.45,76.71,28.23,28.94,42.54,59.46,42.54,90.71s-14.31,61.77-42.54,90.71c-28,28.65-68.14,54.46-119.45,76.71C1390.05,830.08,1248.35,855.5,1097.5,855.5Z" transform="translate(-529 -370)"/><path d="M1097.5,385c75.84,0,149.38,6.43,218.58,19.13,66.58,12.21,126.28,29.64,177.44,51.83,50.42,21.86,89.8,47.11,117.07,75.07,26.81,27.49,40.41,56.24,40.41,85.47s-13.6,58-40.41,85.47c-27.27,28-66.65,53.21-117.07,75.07-51.16,22.19-110.86,39.62-177.44,51.83-69.2,12.7-142.74,19.13-218.58,19.13s-149.38-6.43-218.58-19.13C812.34,816.66,752.64,799.23,701.48,777c-50.42-21.86-89.8-47.11-117.07-75.07C557.6,674.48,544,645.73,544,616.5s13.6-58,40.41-85.47c27.27-28,66.65-53.21,117.07-75.07,51.16-22.19,110.86-39.62,177.44-51.83,69.2-12.7,142.74-19.13,218.58-19.13m0-15C783.53,370,529,480.36,529,616.5S783.53,863,1097.5,863,1666,752.64,1666,616.5,1411.47,370,1097.5,370Z" transform="translate(-529 -370)"/></svg>