<svg id="Card_Front" xmlns="http://www.w3.org/2000/svg" viewBox="0 0 549 801"><defs><style>.cls-1,.cls-4{fill:#fff;}.cls-1,.cls-2,.cls-4{stroke:#231f20;stroke-miterlimit:10;}.cls-2{fill:#00aeef;}.cls-3{fill:#010101;}.cls-4{stroke-width:5px;}</style></defs><title>Change_Cards</title><rect class="cls-1" x="0.5" y="0.5" width="548" height="800" rx="29.5"/><rect class="cls-2" x="19.5" y="17.5" width="510" height="766" rx="29.5"/><rect class="cls-1" x="49.5" y="175.5" width="450" height="450" rx="43"/><path class="cls-3" d="M380.76,273a169.64,169.64,0,0,0-114.42-18.8,46.15,46.15,0,0,0-16.52,8.31L292.59,221l-15.75-16.23-64.93,63,63,64.94L291.14,317l-35.59-36.69a146.28,146.28,0,0,1,170.33,212.6L445.63,504A169.64,169.64,0,0,0,380.76,273Z" transform="translate(-24.5 -15.5)"/><path class="cls-3" d="M320.22,509.34,304,525.08l35.59,36.69A146.27,146.27,0,0,1,169.25,349.18l-19.75-11.1a169.63,169.63,0,0,0,183,248.86,31.09,31.09,0,0,0,12.83-7.41L302.53,621l15.75,16.23,64.94-63-63-64.93Z" transform="translate(-24.5 -15.5)"/><rect class="cls-4" x="94.5" y="201.5" width="78" height="110" rx="19"/><rect class="cls-4" x="364.88" y="494.5" width="78" height="110" rx="19"/></svg>