<svg id="Card_Back" xmlns="http://www.w3.org/2000/svg" viewBox="0 0 549 801"><defs><style>.cls-1{fill:#414042;stroke:#231f20;stroke-miterlimit:10;}.cls-2{fill:#f1f2f2;}</style></defs><title>Back</title><rect class="cls-1" x="0.5" y="0.5" width="548" height="800" rx="29.5"/><path class="cls-2" d="M121.65,451.33l8.84,24.55c-19.57,4.83-34.81,14-43.31,22.5-11.07,11.08-14.11,22.47-6.56,30,24.57,24.53,72-49.32,112.33-8.75,20.07,20.05,14.8,50.06-9.9,74.79a97.69,97.69,0,0,1-63.69,28.13L111.16,598c22.15-1,42.36-9.65,54.39-21.7,13.15-13.17,16-26,7.35-34.67-25.05-25-71.69,49.64-111.68,9.71C42,532.11,46.42,503.54,70.8,479.13,85.39,464.52,104.32,454.88,121.65,451.33Z" transform="translate(-25.5 -15.5)"/><path class="cls-2" d="M300.35,363.27c32.12,32.07,31,82.94-2.49,116.5s-84.38,34.73-116.5,2.65c-32.28-32.23-30.71-82.62,2.81-116.18S268.23,331.2,300.35,363.27ZM200.6,463.15c22.33,22.29,58.43,21.47,80.4-.53a56.37,56.37,0,0,0-.06-79.92c-22.32-22.29-57.62-21.62-79.59.38C179.22,405.24,178.28,440.87,200.6,463.15Z" transform="translate(-25.5 -15.5)"/><path class="cls-2" d="M427.08,314.4l17.19,17.15-67.51,67.61L264.34,286.91l18.93-19,95.23,95.09Z" transform="translate(-25.5 -15.5)"/><path class="cls-2" d="M515.86,147.44c32.12,32.07,31,82.94-2.48,116.51S429,298.67,396.88,266.6c-32.28-32.23-30.71-82.62,2.8-116.19S483.75,115.37,515.86,147.44Zm-99.74,99.89c22.32,22.29,58.43,21.46,80.4-.54a56.38,56.38,0,0,0-.06-79.92c-22.32-22.29-57.63-21.62-79.59.38C394.74,189.41,393.8,225,416.12,247.33Z" transform="translate(-25.5 -15.5)"/></svg>