<svg id="Card_Front" xmlns="http://www.w3.org/2000/svg" viewBox="0 0 549 801"><defs><style>.cls-1{fill:#fff;}.cls-1,.cls-2{stroke:#231f20;stroke-miterlimit:10;}.cls-2{fill:#fff200;}.cls-3{fill:#231f20;}</style></defs><title>8</title><path class="cls-1" d="M543.5,16H54.5A29.5,29.5,0,0,0,25,45.5v741A29.5,29.5,0,0,0,54.5,816h489A29.5,29.5,0,0,0,573,786.5V45.5A29.5,29.5,0,0,0,543.5,16ZM554,769.5A29.5,29.5,0,0,1,524.5,799H73.5A29.5,29.5,0,0,1,44,769.5V62.5A29.5,29.5,0,0,1,73.5,33h451A29.5,29.5,0,0,1,554,62.5Z" transform="translate(-24.5 -15.5)"/><path class="cls-2" d="M524.5,33H73.5A29.5,29.5,0,0,0,44,62.5v707A29.5,29.5,0,0,0,73.5,799h451A29.5,29.5,0,0,0,554,769.5V62.5A29.5,29.5,0,0,0,524.5,33ZM524,598a43,43,0,0,1-43,43H117a43,43,0,0,1-43-43V234a43,43,0,0,1,43-43H481a43,43,0,0,1,43,43Z" transform="translate(-24.5 -15.5)"/><rect class="cls-1" x="49.5" y="175.5" width="450" height="450" rx="47.5"/><path class="cls-3" d="M387.44,351.2c0,28.8-17.2,50-45.6,61.2,36.4,10.8,58.8,36,58.8,71.2,0,50-39.6,80-102.8,80-64,0-103.6-30-103.6-79.2,0-35.6,23.2-61.2,60.4-72-29.2-11.6-46.8-33.2-46.8-62,0-43.6,34.8-69.6,89.6-69.6C353,280.8,387.44,307.2,387.44,351.2ZM224.64,480.8c0,35.2,27.2,55.6,73.2,55.6,45.2,0,72.8-20.4,72.8-55.6,0-33.2-27.2-53.2-73.2-53.2C251.84,427.6,224.64,447.6,224.64,480.8Zm10.8-127.6c0,30,23.2,47.6,62.4,47.6,38.8,0,62-17.6,62-47.6s-23.2-47.6-62-47.6C258.64,305.6,235.44,323.2,235.44,353.2Z" transform="translate(-24.5 -15.5)"/></svg>