<svg id="Card_Front" xmlns="http://www.w3.org/2000/svg" viewBox="0 0 549 801"><defs><style>.cls-1{fill:#fff;}.cls-1,.cls-2{stroke:#231f20;stroke-miterlimit:10;}.cls-2{fill:#fff200;}.cls-3{fill:#010101;}</style></defs><title>Skipp</title><rect class="cls-1" x="0.5" y="0.5" width="548" height="800" rx="29.5"/><rect class="cls-2" x="19.5" y="17.5" width="510" height="766" rx="29.5"/><rect class="cls-1" x="49.5" y="175.5" width="450" height="450" rx="43"/><path class="cls-3" d="M297.64,239.12A176.88,176.88,0,1,0,474.52,416,176.78,176.78,0,0,0,297.64,239.12ZM148.39,416A149.25,149.25,0,0,1,393,301.15L182.78,511.31A148.13,148.13,0,0,1,148.39,416ZM297.64,565.24a148.08,148.08,0,0,1-95.31-34.39L412.49,320.69A149.25,149.25,0,0,1,297.64,565.24Z" transform="translate(-24.5 -15.5)"/></svg>