<svg id="Réteg_1" data-name="Réteg 1" xmlns="http://www.w3.org/2000/svg" viewBox="0 0 664.04 749.57"><defs><style>.cls-1{fill:#fff;}</style></defs><title>Cards_Icon</title><path class="cls-1" d="M1006,950a63.73,63.73,0,0,1-17.37-2.43L711.61,869a63.58,63.58,0,0,1-43.76-78.45L819.37,256.64a63.45,63.45,0,0,1,78.45-43.77l277,78.63A63.51,63.51,0,0,1,1218.6,370L1067.08,903.82A63.77,63.77,0,0,1,1006,950Z" transform="translate(-562 -205.44)"/><path d="M880.45,215.44a58.93,58.93,0,0,1,16,2.24l277,78.63a58.53,58.53,0,0,1,40.31,72.28L1062.27,902.46A58.42,58.42,0,0,1,990,942.77L713,864.15a58.53,58.53,0,0,1-40.31-72.28L824.18,258a58.77,58.77,0,0,1,56.27-42.56h0m0-10a68.57,68.57,0,0,0-65.89,49.83L663,789.14a68.51,68.51,0,0,0,47.2,84.63l277,78.62a68.42,68.42,0,0,0,84.63-47.2l151.52-533.87a68.51,68.51,0,0,0-47.2-84.63l-277-78.63a68.78,68.78,0,0,0-18.74-2.62Z" transform="translate(-562 -205.44)"/><path class="cls-1" d="M770,839.3c-9.15,0-16.72-2.27-22.49-6.75-19.67-15.28-18.93-56.86,2-114.1,21.91-59.82,63-130.17,115.77-198.1,45-58,93.43-107.82,140-144.18,44.66-34.85,84-54,110.76-54,9.14,0,16.71,2.27,22.49,6.76,19.67,15.27,18.92,56.86-2,114.09-21.91,59.82-63,130.17-115.77,198.1-45,58-93.43,107.82-140,144.19C836.13,820.11,796.8,839.3,770,839.3Z" transform="translate(-562 -205.44)"/><path d="M1116.15,317.13v10c8,0,14.53,1.92,19.41,5.71,8.42,6.53,12.56,18.9,12.32,36.75-.25,19-5.78,43.82-16,71.67-21.73,59.35-62.58,129.22-115,196.75C972.12,695.65,924,745.21,877.71,781.32c-43.78,34.17-82,53-107.67,53-8,0-14.55-1.92-19.43-5.7-8.41-6.54-12.56-18.91-12.32-36.76.26-19,5.79-43.82,16-71.67C776,660.82,816.86,591,869.3,523.42c44.75-57.64,92.87-107.19,139.16-143.31,43.78-34.16,82-53,107.68-53v-10m0,0c-57,0-161.6,80.2-254.74,200.16-109.69,141.26-162,284.18-116.92,319.21,6.8,5.28,15.43,7.8,25.56,7.8,57,0,161.59-80.2,254.73-200.16,109.69-141.26,162-284.17,116.92-319.2-6.8-5.29-15.42-7.81-25.55-7.81Z" transform="translate(-562 -205.44)"/><rect class="cls-1" x="5" y="33.56" width="415" height="682" rx="63.52"/><path d="M918.48,244A58.58,58.58,0,0,1,977,302.52v555A58.58,58.58,0,0,1,918.48,916h-288A58.58,58.58,0,0,1,572,857.48v-555A58.58,58.58,0,0,1,630.52,244h288m0-10h-288A68.52,68.52,0,0,0,562,302.52v555A68.52,68.52,0,0,0,630.52,926h288A68.52,68.52,0,0,0,987,857.48v-555A68.52,68.52,0,0,0,918.48,234Z" transform="translate(-562 -205.44)"/><path class="cls-1" d="M666.66,878.31a30.61,30.61,0,0,1-11.51-2.15c-23.09-9.33-33.73-49.53-29.19-110.32,4.74-63.53,25.08-142.43,57.27-222.18,29.48-73,66.33-139.82,103.76-188.11,36.41-47,70.27-72.85,95.35-72.85a30.61,30.61,0,0,1,11.51,2.15c23.09,9.33,33.73,49.54,29.19,110.32C918.3,458.7,898,537.6,865.77,617.35c-29.48,73-66.33,139.82-103.76,188.11C725.6,852.44,691.74,878.31,666.66,878.31Z" transform="translate(-562 -205.44)"/><path d="M882.35,277.7v10a25.19,25.19,0,0,1,9.63,1.79c9.88,4,17.25,14.75,21.89,32,5,18.37,6.4,43.73,4.19,73.31-4.71,63-24.93,141.4-56.93,220.68-29.31,72.6-65.91,139-103.07,186.92-34.93,45.07-68.24,70.91-91.4,70.91a25.21,25.21,0,0,1-9.64-1.79c-9.88-4-17.25-14.75-21.89-32-5-18.38-6.4-43.74-4.19-73.32,4.71-63,24.93-141.4,56.93-220.67,29.31-72.61,65.91-139,103.07-186.92,34.93-45.07,68.24-70.92,91.4-70.92v-10m0,0c-54.8,0-142.1,111.4-203.74,264.09-67,165.85-78.29,317.62-25.32,339a35.34,35.34,0,0,0,13.38,2.52c54.8,0,142.1-111.39,203.74-264.09,67-165.85,78.29-317.62,25.32-339a35.34,35.34,0,0,0-13.38-2.52Z" transform="translate(-562 -205.44)"/></svg>