<svg id="Card_Front" xmlns="http://www.w3.org/2000/svg" viewBox="0 0 549 801"><defs><style>.cls-1{fill:#fff;}.cls-1,.cls-2,.cls-3,.cls-4,.cls-5,.cls-6{stroke:#231f20;stroke-miterlimit:10;}.cls-2{fill:#414042;}.cls-3{fill:#ed1c24;}.cls-4{fill:#00aeef;}.cls-5{fill:#00a651;}.cls-6{fill:#fff200;}</style></defs><title>Change_Color</title><path class="cls-1" d="M543.5,16H54.5A29.5,29.5,0,0,0,25,45.5v741A29.5,29.5,0,0,0,54.5,816h489A29.5,29.5,0,0,0,573,786.5V45.5A29.5,29.5,0,0,0,543.5,16ZM554,769.5A29.5,29.5,0,0,1,524.5,799H73.5A29.5,29.5,0,0,1,44,769.5V62.5A29.5,29.5,0,0,1,73.5,33h451A29.5,29.5,0,0,1,554,62.5Z" transform="translate(-24.5 -15.5)"/><path class="cls-2" d="M524.5,33H73.5A29.5,29.5,0,0,0,44,62.5v707A29.5,29.5,0,0,0,73.5,799h451A29.5,29.5,0,0,0,554,769.5V62.5A29.5,29.5,0,0,0,524.5,33ZM524,598a43,43,0,0,1-43,43H117a43,43,0,0,1-43-43V234a43,43,0,0,1,43-43H481a43,43,0,0,1,43,43Z" transform="translate(-24.5 -15.5)"/><path class="cls-3" d="M299,416,86.59,628.41A42.88,42.88,0,0,1,74,598V234a42.88,42.88,0,0,1,12.59-30.41Z" transform="translate(-24.5 -15.5)"/><path class="cls-4" d="M511.41,628.41A42.88,42.88,0,0,1,481,641H117a42.88,42.88,0,0,1-30.41-12.59L299,416Z" transform="translate(-24.5 -15.5)"/><path class="cls-5" d="M524,234V598a42.88,42.88,0,0,1-12.59,30.41L299,416,511.41,203.59A42.88,42.88,0,0,1,524,234Z" transform="translate(-24.5 -15.5)"/><path class="cls-6" d="M511.41,203.59,299,416,86.59,203.59A42.88,42.88,0,0,1,117,191H481A42.88,42.88,0,0,1,511.41,203.59Z" transform="translate(-24.5 -15.5)"/></svg>