<svg id="Card_Front" xmlns="http://www.w3.org/2000/svg" viewBox="0 0 549 801"><defs><style>.cls-1{fill:#fff;}.cls-1,.cls-2,.cls-3,.cls-4,.cls-5,.cls-6{stroke:#231f20;stroke-miterlimit:10;}.cls-2{fill:#414042;}.cls-3{fill:#ed1c24;}.cls-4{fill:#00aeef;}.cls-5{fill:#00a651;}.cls-6{fill:#fff200;}.cls-7{fill:#010101;}</style></defs><title>Draw_4</title><path class="cls-1" d="M543.5,16H54.5A29.5,29.5,0,0,0,25,45.5v741A29.5,29.5,0,0,0,54.5,816h489A29.5,29.5,0,0,0,573,786.5V45.5A29.5,29.5,0,0,0,543.5,16ZM554,769.5A29.5,29.5,0,0,1,524.5,799H73.5A29.5,29.5,0,0,1,44,769.5V62.5A29.5,29.5,0,0,1,73.5,33h451A29.5,29.5,0,0,1,554,62.5Z" transform="translate(-24.5 -15.5)"/><path class="cls-2" d="M524.5,33H73.5A29.5,29.5,0,0,0,44,62.5v707A29.5,29.5,0,0,0,73.5,799h451A29.5,29.5,0,0,0,554,769.5V62.5A29.5,29.5,0,0,0,524.5,33ZM524,598a43,43,0,0,1-43,43H117a43,43,0,0,1-43-43V234a43,43,0,0,1,43-43H481a43,43,0,0,1,43,43Z" transform="translate(-24.5 -15.5)"/><path class="cls-3" d="M299,416,86.59,628.41A42.88,42.88,0,0,1,74,598V234a42.88,42.88,0,0,1,12.59-30.41Z" transform="translate(-24.5 -15.5)"/><path class="cls-4" d="M511.41,628.41A42.88,42.88,0,0,1,481,641H117a42.88,42.88,0,0,1-30.41-12.59L299,416Z" transform="translate(-24.5 -15.5)"/><path class="cls-5" d="M524,234V598a42.88,42.88,0,0,1-12.59,30.41L299,416,511.41,203.59A42.88,42.88,0,0,1,524,234Z" transform="translate(-24.5 -15.5)"/><path class="cls-6" d="M511.41,203.59,299,416,86.59,203.59A42.88,42.88,0,0,1,117,191H481A42.88,42.88,0,0,1,511.41,203.59Z" transform="translate(-24.5 -15.5)"/><path class="cls-7" d="M410.72,435.9c-.43-.79-.82-1.52-1.17-2.2l-.18-.33c-4.3-7.44-8.43-12.81-12.78-16.49L418.1,307.57A29.75,29.75,0,0,0,413.58,285,28.21,28.21,0,0,0,395.44,273c-15.06-2.89-29.57,7.12-33.74,23.28l-16.23,62.85-2.86-103.48c-.46-16.51-13-29.52-28.59-29.61h-.09c-15.57.09-28.13,13.1-28.59,29.61l-2.86,103.48-16.23-62.85c-4.17-16.16-18.69-26.17-33.74-23.28A28.21,28.21,0,0,0,214.37,285a29.76,29.76,0,0,0-4.52,22.53l3.35,17h0a25.79,25.79,0,0,0-20-1.42c-12.48,4.33-19,17.73-15.86,32.59L195,439.25V477c0,13.86,3.76,27.42,7.39,40.53,2.79,10.08,5.45,19.71,6.43,29.17a7.41,7.41,0,0,0-7,7.4v44.53a7.42,7.42,0,0,0,7.42,7.42H373.47a7.42,7.42,0,0,0,7.42-7.42V554.05a7.42,7.42,0,0,0-7.1-7.41c1.33-17,7.38-23.2,16-32,8.2-8.33,18.42-18.7,26.59-40.38C422.57,458,414.86,443.62,410.72,435.9ZM402.55,469c-7.07,18.74-15.32,27.11-23.29,35.2-9.61,9.76-18.73,19-20.34,42.4H324.77a7.42,7.42,0,1,0,0,14.84h41.28v29.69H216.7V561.47H258a7.42,7.42,0,1,0,0-14.84H223.74c-1-11.29-4.06-22.35-7-33.11-3.52-12.72-6.84-24.73-6.84-36.57V438.47a8,8,0,0,0-.16-1.54l-17.84-84.25c-1.27-6,.14-13.39,6.21-15.5a10.83,10.83,0,0,1,8.42.65,11,11,0,0,1,5.61,6.57l13.77,44.35a7.42,7.42,0,0,0,14.37-3.63L224.42,304.7a15,15,0,0,1,2.26-11.36,13.47,13.47,0,0,1,8.62-5.8c7.26-1.4,14.39,3.94,16.58,12.41l22.69,87.89c0,.16.09.31.14.46a11.37,11.37,0,0,0,12.7,7.5,10.43,10.43,0,0,0,9.18-10.07L300.18,256c.24-8.45,6.29-15.11,13.79-15.18s13.57,6.73,13.8,15.18l3.59,129.72a10.42,10.42,0,0,0,9.18,10.06,11.36,11.36,0,0,0,12.7-7.5c.05-.15.1-.3.14-.46L376.07,300c2.19-8.47,9.32-13.81,16.57-12.41a13.47,13.47,0,0,1,8.63,5.8,15,15,0,0,1,2.26,11.36L382.7,410.57c-5.36-.68-10.54.34-15.94,1.4-1.4.28-2.86.57-4.37.83-15.47,2.73-24.33,1.5-30.8.61-2-.28-3.91-.54-5.74-.65-6.49-.41-12.24,3.3-15.41,9.9a22.36,22.36,0,0,0-.91,2.22L261,426.52a7.42,7.42,0,0,0,.25,14.84h.25l47-1.59a30.07,30.07,0,0,0,7.36,14.83c.22.25.44.48.67.72C295.19,467.39,284,492.7,284,509.51a7.43,7.43,0,1,0,14.85,0c0-14.13,11.22-37.36,31.59-44.25,5.34,2.19,10.39,2.66,15.1,3.1a68.92,68.92,0,0,1,8.44,1.12A7.42,7.42,0,1,0,357.05,455a85.28,85.28,0,0,0-10.19-1.4c-7.84-.72-13-1.2-20-8.94a15.63,15.63,0,0,1-3.71-13.42c.53-2.41,1.54-3.52,1.83-3.64,1.26.08,2.81.29,4.61.54,7,1,17.63,2.44,35.41-.69,1.61-.28,3.17-.59,4.66-.88,6.39-1.26,10.16-1.92,13.49-.69,4.05,1.5,8.41,6.34,13.31,14.79.36.71.77,1.47,1.21,2.28,3.66,6.82,8.67,16.14,4.91,26.11Z" transform="translate(-24.5 -15.5)"/><path class="cls-7" d="M291.38,546.63h0a7.42,7.42,0,1,0,7.43,7.42,7.42,7.42,0,0,0-7.43-7.42Z" transform="translate(-24.5 -15.5)"/></svg>