<svg id="Card_Front" xmlns="http://www.w3.org/2000/svg" viewBox="0 0 549 801"><defs><style>.cls-1{fill:#fff;}.cls-1,.cls-2{stroke:#231f20;stroke-miterlimit:10;}.cls-2{fill:#00a651;}.cls-3{fill:#231f20;}</style></defs><title>6</title><path class="cls-1" d="M543.5,16H54.5A29.5,29.5,0,0,0,25,45.5v741A29.5,29.5,0,0,0,54.5,816h489A29.5,29.5,0,0,0,573,786.5V45.5A29.5,29.5,0,0,0,543.5,16ZM554,769.5A29.5,29.5,0,0,1,524.5,799H73.5A29.5,29.5,0,0,1,44,769.5V62.5A29.5,29.5,0,0,1,73.5,33h451A29.5,29.5,0,0,1,554,62.5Z" transform="translate(-24.5 -15.5)"/><path class="cls-2" d="M524.5,33H73.5A29.5,29.5,0,0,0,44,62.5v707A29.5,29.5,0,0,0,73.5,799h451A29.5,29.5,0,0,0,554,769.5V62.5A29.5,29.5,0,0,0,524.5,33ZM524,598a43,43,0,0,1-43,43H117a43,43,0,0,1-43-43V234a43,43,0,0,1,43-43H481a43,43,0,0,1,43,43Z" transform="translate(-24.5 -15.5)"/><rect class="cls-1" x="49.5" y="175.5" width="450" height="450" rx="47.5"/><path class="cls-3" d="M392.44,300.8l-12.8,25.6c-18.4-10.8-42.8-17.2-64.4-17.2-60,0-90,49.2-85.6,124.8,12.4-32.8,42.4-51.2,83.6-51.2,54.8,0,88.8,34,88.8,88,0,57.2-37.2,92.8-94.8,92.8-68,0-109.2-49.2-109.2-135.6,0-88.8,44-147.2,115.2-147.2C338.84,280.8,369.64,288.8,392.44,300.8Zm-155.2,172c-.4,26.8,20.4,61.2,68,61.2,39.6,0,66.8-24,66.8-63.6,0-37.2-24.8-60.4-64.4-60.4C263.24,410,236.84,439.6,237.24,472.8Z" transform="translate(-24.5 -15.5)"/></svg>