<svg xmlns="http://www.w3.org/2000/svg" viewBox="0 0 200.19 306.61"><defs><style>.cls-1{isolation:isolate;}.cls-2{fill:#fdc795;}.cls-3,.cls-4{opacity:0.5;}.cls-3{mix-blend-mode:multiply;}.cls-4{mix-blend-mode:screen;}.cls-5{fill:#4f152a;}.cls-6{fill:#8dc63f;}.cls-7{fill:#408982;}.cls-8{fill:#00a79d;}.cls-9{fill:#fff;}</style></defs><title>character2</title><g class="cls-1"><g id="Layer_1" data-name="Layer 1"><path class="cls-2" d="M558.25,768.5h0A55.65,55.65,0,0,1,538.67,765v28.72c4.32,10.94,19.57,10.61,19.58,10.61s15.26.33,19.58-10.61V765A55.61,55.61,0,0,1,558.25,768.5Z" transform="translate(-458.15 -560.46)"/><g class="cls-3"><path class="cls-2" d="M569.78,767.32v26.42c-2.9,7.35-10.72,9.61-15.55,10.3a27.7,27.7,0,0,0,4,.31s15.26.33,19.58-10.61V765A53.06,53.06,0,0,1,569.78,767.32Z" transform="translate(-458.15 -560.46)"/></g><g class="cls-4"><path class="cls-2" d="M546.18,767.32v26.42c2.9,7.35,10.72,9.61,15.56,10.3a27.72,27.72,0,0,1-4,.31s-15.26.33-19.57-10.61V765A52.94,52.94,0,0,0,546.18,767.32Z" transform="translate(-458.15 -560.46)"/></g><path class="cls-5" d="M558.38,808.34H558c-1.94,0-18-.42-23-13.14a4.07,4.07,0,0,1-.28-1.46V765a4,4,0,0,1,5.37-3.73,53,53,0,0,0,36.38,0,4,4,0,0,1,5.37,3.73v28.72a4,4,0,0,1-.28,1.45C576.52,807.92,560.46,808.34,558.38,808.34Zm-15.72-15.43c3.6,7.56,15.39,7.47,15.52,7.46.28,0,12.06.1,15.67-7.46V770.46a61.5,61.5,0,0,1-31.19,0Z" transform="translate(-458.15 -560.46)"/><path class="cls-6" d="M633,797.48c-12.14-13.06-37.39-17.28-55.18-18.58v14.84c-4.32,10.94-19.57,10.61-19.58,10.61s-15.26.33-19.58-10.61V778.9c-17.78,1.31-43,5.52-55.18,18.58-19.83,21.36-21.35,65.61-21.35,65.61H654.37S652.84,818.84,633,797.48Z" transform="translate(-458.15 -560.46)"/><g class="cls-3"><path class="cls-6" d="M623.05,800c17,18.34,20.56,53.53,21.22,63.12h10.1s-1.53-44.25-21.36-65.61c-12.14-13.06-37.39-17.28-55.18-18.58v3.48C594.13,784.45,613.05,789.2,623.05,800Z" transform="translate(-458.15 -560.46)"/></g><g class="cls-4"><path class="cls-6" d="M493.45,800c-17,18.34-20.56,53.53-21.22,63.12h-10.1s1.53-44.25,21.36-65.61c12.14-13.06,37.39-17.28,55.18-18.58v3.48C522.37,784.45,503.45,789.2,493.45,800Z" transform="translate(-458.15 -560.46)"/></g><path class="cls-5" d="M654.37,867.07H462.14a4,4,0,0,1-2.87-1.22,4,4,0,0,1-1.11-2.9c.06-1.87,1.81-46,22.42-68.18,12.85-13.84,38.52-18.43,57.8-19.84a4,4,0,0,1,4.28,4v14c3.6,7.56,15.39,7.47,15.52,7.46.28,0,12.06.1,15.67-7.46v-14a4,4,0,0,1,4.27-4c19.27,1.41,45,6,57.81,19.84,20.6,22.2,22.35,66.31,22.42,68.18a4,4,0,0,1-4,4.12Zm-188-8H650.11c-.94-11.23-4.86-42.59-20-58.92h0c-8.16-8.78-25.21-14.75-48.28-17v10.51a4,4,0,0,1-.28,1.45c-5.25,13.33-22.63,13.16-23.35,13.14s-18,.19-23.21-13.13a4.07,4.07,0,0,1-.28-1.46V783.23c-23.07,2.21-40.12,8.18-48.28,17C471.26,816.52,467.33,847.88,466.39,859.11Z" transform="translate(-458.15 -560.46)"/><path class="cls-5" d="M497.2,867.07a4,4,0,0,1-3.74-2.61C490,855,489,834.52,510.18,824.64a4,4,0,1,1,3.37,7.21c-19.89,9.3-12.92,29-12.62,29.87a4,4,0,0,1-2.36,5.11A4.12,4.12,0,0,1,497.2,867.07Z" transform="translate(-458.15 -560.46)"/><path class="cls-5" d="M619.87,867.07a4.08,4.08,0,0,1-1.37-.24,4,4,0,0,1-2.37-5.1c.31-.88,7.12-20.65-12.62-29.88a4,4,0,1,1,3.37-7.21c21.16,9.88,20.19,30.37,16.73,39.82A4,4,0,0,1,619.87,867.07Z" transform="translate(-458.15 -560.46)"/><path class="cls-2" d="M488.83,703.33c0-3.81-.87-27.89,1.24-55h0s-22.6-3.9-22.6,17.27,4.58,45,22.6,45h0A43.36,43.36,0,0,1,488.83,703.33Z" transform="translate(-458.15 -560.46)"/><path class="cls-2" d="M627.67,703.33c0-3.81.87-27.89-1.24-55h0s22.6-3.9,22.6,17.27-4.58,45-22.6,45h0A42.26,42.26,0,0,0,627.67,703.33Z" transform="translate(-458.15 -560.46)"/><path class="cls-5" d="M490.07,714.53c-6.85,0-16.19-3-21.76-17.07-4-10.08-4.82-22.91-4.82-31.89,0-7.18,2.28-12.74,6.76-16.52,7.32-6.16,18-5,20.12-4.74h2.26a4,4,0,0,1,3.94,4.56c-3.71,25.11-3.76,54.08-3.76,54.45a44.05,44.05,0,0,0,1.14,6.31,4,4,0,0,1-3.88,4.89ZM486,652c-3.06,0-7.53.52-10.66,3.17-2.62,2.22-3.89,5.62-3.89,10.4,0,13.57,1.9,35.28,13.6,40a16.71,16.71,0,0,1-.21-2.29,463.71,463.71,0,0,1,3.23-51.25C487.53,652,486.82,652,486,652Z" transform="translate(-458.15 -560.46)"/><path class="cls-5" d="M480,689.56a4,4,0,0,1-3.86-3c-2.55-10.29-1.77-17.81,2.33-22.34a13.23,13.23,0,0,1,11.24-4.05,4,4,0,0,1-1.09,7.89,5.32,5.32,0,0,0-4.29,1.55c-1.22,1.39-2.9,5.19-.46,15a4,4,0,0,1-3.87,4.95Z" transform="translate(-458.15 -560.46)"/><path class="cls-5" d="M637,689.56a4,4,0,0,1-3.87-4.94c2.46-9.92.74-13.71-.51-15.09a5.45,5.45,0,0,0-4.2-1.51,4,4,0,1,1-1.13-7.88,13.23,13.23,0,0,1,11.24,4.05c4.1,4.53,4.88,12,2.33,22.34A4,4,0,0,1,637,689.56Z" transform="translate(-458.15 -560.46)"/><path class="cls-2" d="M618.52,625.14c-14.12-48.82-60.27-48.82-60.27-48.82s-46.15,0-60.26,48.82c-11.39,39.4-9.16,72.09-9.16,78.19s15.26,77,69.42,77,69.42-70.94,69.42-77S629.9,664.54,618.52,625.14Z" transform="translate(-458.15 -560.46)"/><g class="cls-3"><path class="cls-2" d="M618.52,625.14c-14.12-48.82-60.27-48.82-60.27-48.82a45.44,45.44,0,0,0-5,.41c12.32,1.58,44,9.43,55.25,48.41,11.39,39.4,9.16,72.09,9.16,78.19,0,5.91-14.31,72.63-64.41,76.83q2.44.21,5,.21c54.16,0,69.42-70.94,69.42-77S629.9,664.54,618.52,625.14Z" transform="translate(-458.15 -560.46)"/></g><g class="cls-4"><path class="cls-2" d="M497.76,625.14C511.87,576.32,558,576.32,558,576.32a45.69,45.69,0,0,1,5,.41c-12.33,1.58-44,9.43-55.26,48.41-11.39,39.4-9.15,72.09-9.15,78.19,0,5.91,14.31,72.63,64.41,76.83-1.64.14-3.31.21-5,.21-54.16,0-69.41-70.94-69.41-77S486.37,664.54,497.76,625.14Z" transform="translate(-458.15 -560.46)"/></g><path class="cls-5" d="M558.25,784.36c-56.45,0-73.4-73.14-73.4-81,0-.59,0-1.45-.05-2.54A250.66,250.66,0,0,1,494.16,624c14.78-51.1,63.6-51.69,64.09-51.69s49.32.59,64.09,51.69h0a250.66,250.66,0,0,1,9.36,76.76c0,1.09-.05,2-.05,2.54C631.65,711.22,614.7,784.36,558.25,784.36Zm0-204.06c-1.76,0-43.36.7-56.44,46a243.14,243.14,0,0,0-9.05,74.33c0,1.19.05,2.11.05,2.75.05,7.11,15.49,73.06,65.44,73.06s65.39-65.95,65.44-73.06c0-.64,0-1.56,0-2.75a242.89,242.89,0,0,0-9-74.34h0C601.56,580.82,558.68,580.3,558.25,580.3Z" transform="translate(-458.15 -560.46)"/><path class="cls-5" d="M626.43,714.53a4,4,0,0,1-3.88-4.88,44.06,44.06,0,0,0,1.14-6.32v-.47a390.14,390.14,0,0,0-3.76-54,4,4,0,0,1,3.94-4.54h2.26c2.16-.3,12.81-1.42,20.13,4.74,4.48,3.78,6.75,9.34,6.75,16.52C653,697.14,643.57,714.53,626.43,714.53Zm2-62.45a399.59,399.59,0,0,1,3.24,50.79v.46a17.09,17.09,0,0,1-.21,2.31c4-1.6,7-5.27,9.35-11.1,2.78-7.06,4.26-17.08,4.26-29,0-4.78-1.28-8.18-3.9-10.4C637.2,651.81,631.07,651.86,628.41,652.08Z" transform="translate(-458.15 -560.46)"/><path class="cls-5" d="M587.58,669.65a8,8,0,1,0,8,8A8,8,0,0,0,587.58,669.65Z" transform="translate(-458.15 -560.46)"/><path class="cls-5" d="M528.92,669.65a8,8,0,1,0,8,8A8,8,0,0,0,528.92,669.65Z" transform="translate(-458.15 -560.46)"/><path class="cls-5" d="M561.52,717.86c-9.39,0-14.18-5.83-15.46-9.24a4,4,0,0,1,.54-3.78c3.29-4.38,6.74-16.1,7.79-20.25a4,4,0,0,1,7.72,2c-.38,1.51-3.52,13.57-7.61,20.72,1.27,1.38,4,3.16,9.21,2.48a4,4,0,0,1,1,7.89A24.43,24.43,0,0,1,561.52,717.86Z" transform="translate(-458.15 -560.46)"/><path class="cls-5" d="M557.14,750.39l-1.17,0c-10.66-.42-20.77-6.46-30.06-18a4,4,0,0,1,6.2-5c7.78,9.64,15.91,14.69,24.16,15,9,.35,18.55-4.78,28.41-15.24a4,4,0,0,1,5.8,5.46C579.36,744.42,568.15,750.39,557.14,750.39Z" transform="translate(-458.15 -560.46)"/><path class="cls-5" d="M511.87,667.44a3.92,3.92,0,0,1-1.66-.36,4,4,0,0,1-2-5.28,23.55,23.55,0,0,1,41.34,0,4,4,0,1,1-7.23,3.32,15.64,15.64,0,0,0-26.87,0A4,4,0,0,1,511.87,667.44Z" transform="translate(-458.15 -560.46)"/><path class="cls-5" d="M570.53,667.44a3.92,3.92,0,0,1-1.66-.36,4,4,0,0,1-2-5.28,23.55,23.55,0,0,1,41.34,0,4,4,0,1,1-7.23,3.32,15.64,15.64,0,0,0-26.87,0A4,4,0,0,1,570.53,667.44Z" transform="translate(-458.15 -560.46)"/><path class="cls-7" d="M649.59,648c-5.48-70.64-45.5-83.58-91.34-83.58S472.39,577.38,466.91,648s34.39,90.13,34.39,90.13C478.94,692.2,493.88,648,493.88,648c53.17,0,64.37-41.11,64.37-41.11S569.45,648,622.63,648c0,0,14.93,44.18-7.43,90.13C615.2,738.15,655.06,718.65,649.59,648Z" transform="translate(-458.15 -560.46)"/><g class="cls-3"><path class="cls-7" d="M649.59,648c-5.48-70.64-45.5-83.58-91.34-83.58-2.06,0-4.1,0-6.14.09,43.22,1.2,80,16,85.2,83.49,2.7,34.84-5.63,57.22-14.76,71a119.65,119.65,0,0,1-7.35,19.15S655.06,718.65,649.59,648Z" transform="translate(-458.15 -560.46)"/></g><g class="cls-4"><path class="cls-8" d="M466.91,648c5.48-70.64,45.51-83.58,91.34-83.58,2.06,0,4.11,0,6.14.09-43.22,1.2-80,16-85.2,83.49-2.7,34.84,5.63,57.22,14.77,71a119.58,119.58,0,0,0,7.34,19.15S461.44,718.65,466.91,648Z" transform="translate(-458.15 -560.46)"/></g><path class="cls-5" d="M501.3,742.14a4,4,0,0,1-1.75-.41c-1.73-.85-42.23-21.53-36.61-94,6-77.34,54.09-87.25,95.31-87.25s89.31,9.91,95.31,87.25h0c5.62,72.49-34.88,93.17-36.61,94a4,4,0,0,1-5.33-5.32c18.33-37.68,10.67-74.43,8-84.45C582,650.87,565,629.4,558.25,616.86c-6.75,12.54-23.75,34-61.37,35.1-2.65,10-10.28,46.87,8,84.45a4,4,0,0,1-3.58,5.73Zm56.95-139.2h0a4,4,0,0,1,3.83,2.93c.43,1.54,11.21,38.16,60.54,38.16a4,4,0,0,1,3.77,2.71c.57,1.68,12.36,37.64-1.74,78.91,10.57-11.16,24.3-34.23,21-77.33-5.45-70.22-45.21-79.9-87.37-79.9s-81.92,9.68-87.37,79.9c-3.34,43.09,10.39,66.16,21,77.32-14.1-41.26-2.3-77.22-1.74-78.9a4,4,0,0,1,3.78-2.71c49.32,0,60.1-36.62,60.53-38.17A4,4,0,0,1,558.25,602.94Z" transform="translate(-458.15 -560.46)"/><path class="cls-9" d="M577.87,793.74c-4.31,10.94-19.56,10.61-19.58,10.61h-.08s-15.27.33-19.58-10.61c0,0-25,30-12.94,69.35h65.12C602.92,823.77,577.87,793.74,577.87,793.74Z" transform="translate(-458.15 -560.46)"/><path class="cls-5" d="M590.81,867.07H525.69a4,4,0,0,1-3.8-2.81c-12.61-40.92,12.6-71.78,13.68-73.08a4,4,0,0,1,6.77,1.1c3.23,8.19,15.67,8.09,15.8,8.09h.23c.11,0,12.57.1,15.8-8.09a4,4,0,0,1,6.76-1.1c1.08,1.3,26.29,32.16,13.69,73.08A4,4,0,0,1,590.81,867.07Zm-62.12-8h59.12c7.08-26.87-4-49-9.8-58.25-7.09,7.6-19.17,7.48-19.79,7.47s-12.65.13-19.73-7.47C532.68,810.07,521.61,832.24,528.69,859.11Z" transform="translate(-458.15 -560.46)"/></g></g></svg>