<svg xmlns="http://www.w3.org/2000/svg" viewBox="0 0 253.45 306.61"><defs><style>.cls-1{isolation:isolate;}.cls-2{fill:#fdc795;}.cls-3,.cls-4{opacity:0.5;}.cls-3{mix-blend-mode:multiply;}.cls-4{mix-blend-mode:screen;}.cls-5{fill:#4f152a;}.cls-6{fill:#794fa0;}.cls-7{fill:#f15e38;}.cls-8{fill:#f15a29;}.cls-9{fill:#6d6e71;}</style></defs><title>character5</title><g class="cls-1"><g id="Layer_1" data-name="Layer 1"><path class="cls-2" d="M1110.84,768.5h0a55.55,55.55,0,0,1-19.57-3.48v28.72c4.31,10.94,19.56,10.61,19.57,10.61s15.27.33,19.58-10.61V765A55.56,55.56,0,0,1,1110.84,768.5Z" transform="translate(-984.75 -560.46)"/><g class="cls-3"><path class="cls-2" d="M1122.37,767.32v26.42c-2.89,7.35-10.72,9.61-15.55,10.3a27.7,27.7,0,0,0,4,.31s15.27.33,19.58-10.61V765A53.06,53.06,0,0,1,1122.37,767.32Z" transform="translate(-984.75 -560.46)"/></g><g class="cls-4"><path class="cls-2" d="M1098.78,767.32v26.42c2.89,7.35,10.71,9.61,15.55,10.3a27.7,27.7,0,0,1-4,.31s-15.27.33-19.58-10.61V765A53.06,53.06,0,0,0,1098.78,767.32Z" transform="translate(-984.75 -560.46)"/></g><path class="cls-5" d="M1111,808.34h-.38c-1.93,0-18-.42-23-13.15a4,4,0,0,1-.28-1.45V765a4,4,0,0,1,5.38-3.73,53,53,0,0,0,36.37,0,4,4,0,0,1,5.37,3.73v28.72a3.78,3.78,0,0,1-.28,1.45C1129.11,807.92,1113.05,808.34,1111,808.34Zm-15.72-15.43c3.6,7.56,15.4,7.46,15.52,7.46.28,0,12.06.1,15.67-7.46V770.46a61.5,61.5,0,0,1-31.19,0Z" transform="translate(-984.75 -560.46)"/><path class="cls-2" d="M1185.6,797.48c-12.14-13.06-37.39-17.28-55.18-18.58v14.84c-4.31,10.94-19.57,10.61-19.58,10.61s-15.26.33-19.57-10.61V778.9c-17.79,1.31-43,5.52-55.18,18.58-19.84,21.36-21.36,65.61-21.36,65.61H1207S1205.43,818.84,1185.6,797.48Z" transform="translate(-984.75 -560.46)"/><path class="cls-5" d="M1207,867.07H1014.73a4,4,0,0,1-2.87-1.22,4,4,0,0,1-1.11-2.9c.06-1.87,1.81-46,22.42-68.18,12.85-13.84,38.53-18.43,57.81-19.84a4,4,0,0,1,4.27,4v14c3.6,7.56,15.4,7.46,15.52,7.46.28,0,12.06.1,15.67-7.46v-14a4,4,0,0,1,4.27-4c19.28,1.41,45,6,57.81,19.84h0c20.61,22.2,22.35,66.31,22.42,68.18a4,4,0,0,1-4,4.12Zm-188-8h183.73c-.94-11.23-4.87-42.59-20-58.92h0c-8.16-8.78-25.21-14.75-48.28-17v10.51a3.78,3.78,0,0,1-.28,1.45c-5.25,13.33-22.63,13.17-23.35,13.14s-18,.18-23.21-13.14a4,4,0,0,1-.28-1.45V783.23c-23.07,2.21-40.12,8.18-48.28,17C1023.85,816.52,1019.92,847.88,1019,859.11Z" transform="translate(-984.75 -560.46)"/><path class="cls-2" d="M1041.43,703.33c0-3.81-.87-27.89,1.23-55h0s-22.59-3.9-22.59,17.27,4.57,45,22.59,45h0A42.91,42.91,0,0,1,1041.43,703.33Z" transform="translate(-984.75 -560.46)"/><path class="cls-2" d="M1180.26,703.33c0-3.81.87-27.89-1.24-55h0s22.6-3.9,22.6,17.27-4.57,45-22.6,45h0A42.26,42.26,0,0,0,1180.26,703.33Z" transform="translate(-984.75 -560.46)"/><path class="cls-5" d="M1042.66,714.53c-17.14,0-26.58-17.39-26.58-49,0-7.18,2.28-12.74,6.76-16.52,7.31-6.15,17.95-5,20.12-4.73h2.26a4,4,0,0,1,3.94,4.56c-3.71,25.11-3.75,54.09-3.75,54.45a41.94,41.94,0,0,0,1.13,6.32,4,4,0,0,1-3.88,4.88ZM1038.59,652c-3,0-7.52.52-10.64,3.17-2.63,2.22-3.9,5.62-3.9,10.4,0,13.57,1.9,35.28,13.6,40a18.48,18.48,0,0,1-.21-2.29,462.26,462.26,0,0,1,3.24-51.25C1040.12,652,1039.41,652,1038.59,652Z" transform="translate(-984.75 -560.46)"/><path class="cls-5" d="M1032.58,689.56a4,4,0,0,1-3.86-3c-2.55-10.29-1.77-17.81,2.33-22.34a13.23,13.23,0,0,1,11.24-4.05,4,4,0,0,1-1.08,7.89,5.33,5.33,0,0,0-4.3,1.55c-1.22,1.39-2.9,5.19-.46,15a4,4,0,0,1-3.87,4.94Z" transform="translate(-984.75 -560.46)"/><path class="cls-5" d="M1189.58,689.56a4,4,0,0,1-3.86-4.94c2.43-9.85.75-13.65-.47-15A5.34,5.34,0,0,0,1181,668a4,4,0,0,1-4.43-3.45,4,4,0,0,1,3.35-4.44,13.23,13.23,0,0,1,11.24,4.05c4.1,4.53,4.89,12,2.34,22.34A4,4,0,0,1,1189.58,689.56Z" transform="translate(-984.75 -560.46)"/><path class="cls-2" d="M1171.11,625.14c-14.12-48.82-60.27-48.82-60.27-48.82s-46.15,0-60.26,48.82c-11.39,39.39-9.15,72.09-9.15,78.19s15.25,77,69.41,77,69.42-70.94,69.42-77S1182.5,664.53,1171.11,625.14Z" transform="translate(-984.75 -560.46)"/><g class="cls-3"><path class="cls-2" d="M1171.11,625.14c-14.12-48.82-60.27-48.82-60.27-48.82a43.72,43.72,0,0,0-5,.4c12.32,1.59,44,9.44,55.25,48.42,11.39,39.39,9.16,72.09,9.16,78.19,0,5.91-14.31,72.63-64.41,76.83q2.45.21,5,.21c54.16,0,69.42-70.94,69.42-77S1182.5,664.53,1171.11,625.14Z" transform="translate(-984.75 -560.46)"/></g><g class="cls-4"><path class="cls-2" d="M1050.35,625.14c14.12-48.82,60.27-48.82,60.27-48.82a43.72,43.72,0,0,1,5,.4c-12.32,1.59-44,9.44-55.26,48.42-11.38,39.39-9.15,72.09-9.15,78.19,0,5.91,14.31,72.63,64.41,76.83q-2.45.21-5,.21c-54.16,0-69.42-70.94-69.42-77S1039,664.53,1050.35,625.14Z" transform="translate(-984.75 -560.46)"/></g><path class="cls-5" d="M1110.84,784.36c-56.45,0-73.4-73.14-73.4-81,0-.59,0-1.45,0-2.54a251,251,0,0,1,9.36-76.76c14.78-51.1,63.6-51.69,64.09-51.69s49.32.59,64.09,51.69h0a250.66,250.66,0,0,1,9.36,76.76c0,1.09,0,2,0,2.54C1184.24,711.22,1167.29,784.36,1110.84,784.36Zm0-204.06c-1.75,0-43.35.7-56.44,46a243.11,243.11,0,0,0-9.05,74.33c0,1.19.06,2.11.06,2.75,0,7.11,15.48,73.06,65.43,73.06s65.39-65.95,65.44-73.06c0-.64,0-1.56,0-2.75a242.89,242.89,0,0,0-9-74.34C1154.2,581,1112.6,580.31,1110.84,580.3Z" transform="translate(-984.75 -560.46)"/><path class="cls-5" d="M1179,714.53a4,4,0,0,1-3.87-4.88,41.94,41.94,0,0,0,1.13-6.32v-.47a391.7,391.7,0,0,0-3.75-54,3.94,3.94,0,0,1,.93-3.17,4,4,0,0,1,3-1.37h2.25c2.17-.31,12.81-1.43,20.13,4.73,4.48,3.78,6.75,9.34,6.75,16.52C1205.6,697.14,1196.16,714.53,1179,714.53Zm2-62.45a399.59,399.59,0,0,1,3.24,50.79v.46a18.13,18.13,0,0,1-.2,2.29c11.7-4.77,13.6-26.48,13.6-40,0-4.79-1.28-8.2-3.92-10.42C1189.78,651.83,1183.66,651.87,1181,652.08Z" transform="translate(-984.75 -560.46)"/><path class="cls-5" d="M1140.17,669.65a8,8,0,1,0,8,8A8,8,0,0,0,1140.17,669.65Z" transform="translate(-984.75 -560.46)"/><path class="cls-5" d="M1081.51,669.65a8,8,0,1,0,8,8A8,8,0,0,0,1081.51,669.65Z" transform="translate(-984.75 -560.46)"/><path class="cls-5" d="M1114.12,717.86c-9.4,0-14.19-5.83-15.47-9.24a4,4,0,0,1,.55-3.78c3.28-4.38,6.73-16.1,7.78-20.25a4,4,0,1,1,7.72,2c-.38,1.51-3.52,13.57-7.61,20.72,1.27,1.38,4,3.16,9.21,2.48a4,4,0,1,1,1,7.89A24.29,24.29,0,0,1,1114.12,717.86Z" transform="translate(-984.75 -560.46)"/><path class="cls-5" d="M1109.73,750.39l-1.17,0c-10.65-.41-20.77-6.46-30.06-18a4,4,0,1,1,6.2-5c7.78,9.64,15.91,14.69,24.17,15,9,.35,18.54-4.78,28.41-15.24a4,4,0,1,1,5.79,5.46C1132,744.42,1120.74,750.39,1109.73,750.39Z" transform="translate(-984.75 -560.46)"/><path class="cls-5" d="M1064.46,667.45a3.93,3.93,0,0,1-1.66-.37,4,4,0,0,1-2-5.28,23.55,23.55,0,0,1,41.35,0,4,4,0,0,1-7.24,3.33,15.63,15.63,0,0,0-26.87,0A4,4,0,0,1,1064.46,667.45Z" transform="translate(-984.75 -560.46)"/><path class="cls-5" d="M1157.23,667.45a4,4,0,0,1-3.62-2.32,15.63,15.63,0,0,0-26.87,0,4,4,0,0,1-7.24-3.33,23.55,23.55,0,0,1,41.35,0,4,4,0,0,1-2,5.28A3.93,3.93,0,0,1,1157.23,667.45Z" transform="translate(-984.75 -560.46)"/><path class="cls-6" d="M1112.05,564.44c75.62,0,90.31,58.4,96.16,83.57s26,29.6,26,29.6c-8.63,62.07-62.54,57.68-62.54,57.68,19.25-36.21,6-87.28,6-87.28s-24.89,1.17-24-40.2c0,0-5.9,28.8-30.62,25.82s-67.86-8.06-77.9,14.38c0,0-13.2,51.07,6,87.28,0,0-53.91,4.39-62.54-57.68,0,0,20.14-4.42,26-29.6s20.54-83.57,96.16-83.57" transform="translate(-984.75 -560.46)"/><path class="cls-5" d="M1173.51,739.32c-1.33,0-2.1-.06-2.16-.06a4,4,0,0,1-3.2-5.84c15.83-29.76,8.64-70.85,6.33-81.7a25.2,25.2,0,0,1-13.56-6.94c-5-4.87-8.33-11.76-10-20.56-5.6,8.15-14.72,15-28.29,13.36-22.56-2.73-64.45-7.79-73.65,11.75-1,4.35-11.72,51.16,5.79,84.09a4,4,0,0,1-3.2,5.84c-.58,0-57.76,3.94-66.8-61.1a4,4,0,0,1,3.09-4.44c.7-.16,17.79-4.35,23-26.61,5.51-23.7,20.16-86.65,100-86.65a3.69,3.69,0,0,1,.58,0,3.77,3.77,0,0,1,.58,0c79.88,0,94.53,62.95,100,86.65,5.23,22.47,22.8,26.57,23,26.61a4,4,0,0,1,3.1,4.44C1230.12,735.94,1184.08,739.32,1173.51,739.32Zm-180.33-59c7.46,43.28,38.48,50.06,51.76,50.94-15.64-36.41-4.1-82.23-3.57-84.26a3.35,3.35,0,0,1,.22-.63c11.29-25.26,55.56-19.91,82-16.72,20.71,2.48,26-21.64,26.24-22.67a4,4,0,0,1,7.88.89c-.32,14.39,2.66,25.13,8.62,31.05a16.59,16.59,0,0,0,11.23,5.1,4,4,0,0,1,4,3c.53,2,12.07,47.83-3.56,84.24,13.29-.94,44.3-7.81,51.75-50.92-6.65-2.63-20.56-10.5-25.43-31.42-5.6-24.09-18.72-80.5-92.28-80.5a3.77,3.77,0,0,1-.58,0,3.69,3.69,0,0,1-.58,0c-73.55,0-86.68,56.41-92.28,80.5C1013.74,669.84,999.83,677.71,993.18,680.34Z" transform="translate(-984.75 -560.46)"/><path class="cls-7" d="M1157.22,828.25s-23.44-13.83,1.41-44.86a155.23,155.23,0,0,0-28.21-4.49v14.84c-4.31,10.94-19.57,10.61-19.58,10.61s-15.26.33-19.57-10.61V778.9a156.21,156.21,0,0,0-28.22,4.49c24.85,31,1.41,44.86,1.41,44.86-23.44,11-14.67,34.84-14.67,34.84H1171.9S1180.66,839.2,1157.22,828.25Z" transform="translate(-984.75 -560.46)"/><g class="cls-3"><path class="cls-8" d="M1157.22,828.25s-23.44-13.83,1.41-44.86a155.23,155.23,0,0,0-28.21-4.49v1a137.6,137.6,0,0,1,18.26,3.49c-24.86,31-1.42,44.86-1.42,44.86,23.45,11,14.68,34.84,14.68,34.84h10S1180.66,839.2,1157.22,828.25Z" transform="translate(-984.75 -560.46)"/></g><g class="cls-4"><path class="cls-9" d="M1064.46,828.25s23.44-13.83-1.41-44.86a155.23,155.23,0,0,1,28.21-4.49v1a137.9,137.9,0,0,0-18.26,3.49c24.86,31,1.42,44.86,1.42,44.86-23.44,11-14.68,34.84-14.68,34.84h-10S1041,839.2,1064.46,828.25Z" transform="translate(-984.75 -560.46)"/></g><path class="cls-5" d="M1171.89,867.07h-122.1a4,4,0,0,1-3.74-2.61c-3.46-9.42-4.43-29.79,16.51-39.72a18.39,18.39,0,0,0,7.65-11.84c1.36-7.73-2.09-16.82-10.27-27a4,4,0,0,1,2.08-6.34,158.26,158.26,0,0,1,29-4.61,4,4,0,0,1,4.27,4v14c3.6,7.56,15.4,7.46,15.52,7.46.28,0,12.06.1,15.67-7.46v-14a4,4,0,0,1,4.27-4,156.72,156.72,0,0,1,29,4.61,4,4,0,0,1,2.08,6.34c-8.17,10.2-11.63,19.29-10.27,27a18.39,18.39,0,0,0,7.66,11.84c20.93,9.93,20,30.3,16.5,39.72A4,4,0,0,1,1171.89,867.07Zm-119.08-8h116.06c1.27-5.84,2.41-19.9-13.34-27.26a2.68,2.68,0,0,1-.33-.18,26.46,26.46,0,0,1-11.54-17.21c-1.6-8.73,1.15-18.34,8.18-28.61a157,157,0,0,0-17.44-2.62v10.51a3.78,3.78,0,0,1-.28,1.45c-5.24,13.32-22.62,13.17-23.35,13.14s-18,.18-23.21-13.14a4,4,0,0,1-.28-1.45V783.23a157,157,0,0,0-17.44,2.62c7,10.27,9.78,19.88,8.18,28.61a26.5,26.5,0,0,1-11.53,17.21,2.79,2.79,0,0,1-.34.18C1050.41,839.2,1051.55,853.26,1052.81,859.11Z" transform="translate(-984.75 -560.46)"/></g></g></svg>