<svg xmlns="http://www.w3.org/2000/svg" viewBox="0 0 200.2 309.05"><defs><style>.cls-1{isolation:isolate;}.cls-2{fill:#657ebe;}.cls-3,.cls-4{opacity:0.5;}.cls-3{mix-blend-mode:multiply;}.cls-4{mix-blend-mode:screen;}.cls-5{fill:#4f152a;}.cls-6{fill:#fdf16d;}.cls-7{fill:#fbb040;}.cls-8{fill:#ffdeb3;}.cls-9{fill:#fdc795;}</style></defs><title>character1</title><g class="cls-1"><g id="Layer_1" data-name="Layer 1"><polygon class="cls-2" points="100.1 262.98 184.56 256.96 173.22 111.82 100.1 102.08 100.1 102.08 100.1 102.08 100.1 102.08 100.1 102.08 26.98 111.82 15.64 256.96 100.1 262.98 100.1 262.98 100.1 262.98 100.1 262.98 100.1 262.98"/><g class="cls-3"><polygon class="cls-2" points="173.22 111.82 100.1 102.08 93.96 102.89 160.94 111.82 172.28 256.96 93.96 262.54 100.1 262.98 184.56 256.96 173.22 111.82"/></g><g class="cls-4"><polygon class="cls-2" points="26.97 111.82 100.09 102.08 106.23 102.89 39.25 111.82 27.91 256.96 106.23 262.54 100.09 262.98 15.64 256.96 26.97 111.82"/></g><path class="cls-5" d="M841.75,825h-.28L757,819a4,4,0,0,1-3.69-4.28l11.34-145.14a4,4,0,0,1,3.44-3.64l73.12-9.74a3.69,3.69,0,0,1,1,0l73.13,9.74a4,4,0,0,1,3.44,3.64l11.34,145.14a4,4,0,0,1-3.69,4.28L842,825Zm-80.18-13.69L841.75,817l80.17-5.71L911.15,673.36l-69.4-9.25-69.41,9.25Z" transform="translate(-741.65 -558.02)"/><path class="cls-6" d="M916.5,797.48c-12.13-13.06-37.39-17.28-55.18-18.58v14.84c-4.31,10.94-19.56,10.61-19.57,10.61s-15.27.33-19.58-10.61V778.9c-17.79,1.31-43,5.52-55.18,18.58-19.83,21.36-21.36,65.61-21.36,65.61H937.86S936.34,818.84,916.5,797.48Z" transform="translate(-741.65 -558.02)"/><g class="cls-3"><path class="cls-7" d="M907.54,800.42c16.77,18.05,20.45,52.45,21.19,62.67h9.13s-1.52-44.25-21.36-65.61c-12.13-13.06-37.39-17.28-55.18-18.58v3.82C877.85,784.71,897.33,789.43,907.54,800.42Z" transform="translate(-741.65 -558.02)"/></g><g class="cls-4"><path class="cls-8" d="M776,800.42c-16.76,18.05-20.45,52.45-21.19,62.67h-9.13s1.53-44.25,21.36-65.61c12.14-13.06,37.39-17.28,55.18-18.58v3.82C805.65,784.71,786.16,789.43,776,800.42Z" transform="translate(-741.65 -558.02)"/></g><path class="cls-9" d="M861.32,778.9V765a56.79,56.79,0,0,1-39.15,0V778.9a164.75,164.75,0,0,0-24,3.45s10.76,45.9,42.35,45.9,42.35-45.9,42.35-45.9c.08-.17.13-.34.2-.51A168.87,168.87,0,0,0,861.32,778.9Z" transform="translate(-741.65 -558.02)"/><path class="cls-5" d="M840.5,832.23c-34.22,0-45.75-47-46.23-49a4,4,0,0,1,.5-3,4,4,0,0,1,2.5-1.78,159.89,159.89,0,0,1,20.92-3.23V765a4,4,0,0,1,5.37-3.73,53,53,0,0,0,36.37,0,4,4,0,0,1,5.38,3.73v10.22a166,166,0,0,1,18.56,2.7,4,4,0,0,1,2.72,2.07,4,4,0,0,1,.12,3.41l-.05.14C885.55,788.07,873.83,832.23,840.5,832.23Zm-37.34-46.86c3.35,10.59,14.47,38.89,37.34,38.89,23.31,0,34.35-29.12,37.5-39.33-5.3-.93-11-1.62-17-2.06a4,4,0,0,1-3.69-4v-8.44a61.5,61.5,0,0,1-31.19,0v8.44a4,4,0,0,1-3.69,4A166.33,166.33,0,0,0,803.16,785.37Z" transform="translate(-741.65 -558.02)"/><path class="cls-5" d="M780.69,867.06a4,4,0,0,1-3.74-2.6c-3.46-9.45-4.43-29.94,16.73-39.82a4,4,0,1,1,3.37,7.21c-19.76,9.23-12.92,29-12.61,29.88a4,4,0,0,1-2.39,5.09A3.83,3.83,0,0,1,780.69,867.06Z" transform="translate(-741.65 -558.02)"/><path class="cls-5" d="M903.36,867.07a4.12,4.12,0,0,1-1.37-.24,4,4,0,0,1-2.37-5.1c.31-.86,7.14-20.65-12.62-29.88a4,4,0,1,1,3.37-7.21c21.17,9.88,20.2,30.37,16.73,39.82A4,4,0,0,1,903.36,867.07Z" transform="translate(-741.65 -558.02)"/><path class="cls-9" d="M772.33,689c0-3.8-.87-27.88,1.24-55h0s-22.6-3.9-22.6,17.27,4.57,45,22.6,45h0A42,42,0,0,1,772.33,689Z" transform="translate(-741.65 -558.02)"/><path class="cls-9" d="M911.17,689c0-3.8.86-27.88-1.24-55h0s22.59-3.9,22.59,17.27-4.57,45-22.59,45h0A43,43,0,0,0,911.17,689Z" transform="translate(-741.65 -558.02)"/><path class="cls-5" d="M773.57,700.22c-6.85,0-16.19-3-21.76-17.07-4-10.09-4.82-22.91-4.82-31.9,0-7.18,2.27-12.74,6.75-16.51,7.32-6.17,18-5,20.13-4.74h2.26a4,4,0,0,1,3.93,4.56c-3.7,25.12-3.75,54.09-3.75,54.45a44.06,44.06,0,0,0,1.14,6.32,4,4,0,0,1-3.88,4.89Zm-4.07-62.54c-3,0-7.53.52-10.65,3.17-2.62,2.22-3.9,5.63-3.9,10.4,0,13.57,1.9,35.29,13.6,40.06a18.27,18.27,0,0,1-.2-2.3,463.71,463.71,0,0,1,3.23-51.25C771,637.72,770.31,637.68,769.5,637.68Z" transform="translate(-741.65 -558.02)"/><path class="cls-5" d="M763.49,675.24a4,4,0,0,1-3.87-3c-2.55-10.29-1.76-17.81,2.33-22.34a13.28,13.28,0,0,1,11.24-4,4,4,0,0,1-1.08,7.89,5.36,5.36,0,0,0-4.29,1.55c-1.22,1.39-2.91,5.2-.47,15a4,4,0,0,1-3.86,4.94Z" transform="translate(-741.65 -558.02)"/><path class="cls-5" d="M920.49,675.24a4,4,0,0,1-3.87-4.94c2.44-9.84.75-13.65-.47-15a5.34,5.34,0,0,0-4.3-1.55,4,4,0,0,1-4.42-3.44,4,4,0,0,1,3.35-4.45,13.28,13.28,0,0,1,11.24,4c4.1,4.53,4.88,12,2.33,22.34A4,4,0,0,1,920.49,675.24Z" transform="translate(-741.65 -558.02)"/><path class="cls-9" d="M902,610.82C887.9,562,841.75,562,841.75,562s-46.15,0-60.27,48.82c-11.38,39.4-9.15,72.09-9.15,78.19s15.26,77,69.42,77,69.42-70.94,69.42-77S913.4,650.22,902,610.82Z" transform="translate(-741.65 -558.02)"/><g class="cls-3"><path class="cls-9" d="M902,610.82C887.9,562,841.75,562,841.75,562a45.44,45.44,0,0,0-5,.41c12.32,1.58,44,9.44,55.25,48.41,11.39,39.4,9.15,72.09,9.15,78.19,0,5.91-14.31,72.63-64.4,76.84q2.44.21,5,.21c54.16,0,69.42-70.94,69.42-77S913.4,650.22,902,610.82Z" transform="translate(-741.65 -558.02)"/></g><g class="cls-4"><path class="cls-9" d="M781.26,610.82C795.37,562,841.52,562,841.52,562a45.44,45.44,0,0,1,5,.41c-12.32,1.58-44,9.44-55.25,48.41-11.39,39.4-9.15,72.09-9.15,78.19,0,5.91,14.31,72.63,64.4,76.84q-2.44.21-5,.21c-54.16,0-69.42-70.94-69.42-77S769.87,650.22,781.26,610.82Z" transform="translate(-741.65 -558.02)"/></g><path class="cls-5" d="M841.75,770c-56.45,0-73.4-73.14-73.4-81,0-.59,0-1.44-.05-2.54a250.58,250.58,0,0,1,9.36-76.75c14.77-51.11,63.6-51.7,64.09-51.7s49.31.59,64.09,51.7h0a250.58,250.58,0,0,1,9.36,76.75c0,1.1-.05,1.95-.05,2.54C915.15,696.9,898.2,770,841.75,770Zm0-204.06c-1.75,0-43.35.7-56.43,45.95a242.84,242.84,0,0,0-9,74.34c0,1.18,0,2.1,0,2.74.05,7.11,15.49,73.07,65.44,73.07s65.39-66,65.43-73.07c0-.64,0-1.56.06-2.74a243.17,243.17,0,0,0-9-74.34h0C885.11,566.68,843.5,566,841.74,566Z" transform="translate(-741.65 -558.02)"/><path class="cls-5" d="M909.93,700.22a4,4,0,0,1-3.88-4.89,41.72,41.72,0,0,0,1.13-6.32v-.47a388.35,388.35,0,0,0-3.75-54,4,4,0,0,1,3.94-4.55h2.25c2.16-.3,12.81-1.43,20.13,4.74,4.48,3.77,6.76,9.33,6.76,16.51C936.51,682.83,927.07,700.22,909.93,700.22Zm2-62.46a396.37,396.37,0,0,1,3.24,50.79V689a16.82,16.82,0,0,1-.21,2.31c4-1.6,7-5.27,9.34-11.1,2.79-7.06,4.26-17.07,4.26-29,0-4.77-1.27-8.18-3.9-10.4C920.69,637.5,914.57,637.55,911.91,637.76Z" transform="translate(-741.65 -558.02)"/><path class="cls-5" d="M871.08,661.8a8,8,0,1,0,8,8A8,8,0,0,0,871.08,661.8Z" transform="translate(-741.65 -558.02)"/><path class="cls-5" d="M812.42,661.8a8,8,0,1,0,8,8A8,8,0,0,0,812.42,661.8Z" transform="translate(-741.65 -558.02)"/><path class="cls-5" d="M845,714.37c-9.4,0-14.18-5.83-15.46-9.24a4,4,0,0,1,.54-3.79c3.28-4.37,6.74-16.09,7.79-20.24a4,4,0,1,1,7.72,2c-.38,1.5-3.52,13.57-7.62,20.71,1.28,1.39,4,3.17,9.22,2.48a4,4,0,0,1,1,7.9A24.43,24.43,0,0,1,845,714.37Z" transform="translate(-741.65 -558.02)"/><path class="cls-5" d="M840.64,742.14c-.4,0-.79,0-1.18,0-10.65-.41-20.76-6.45-30.05-18a4,4,0,1,1,6.19-5c7.79,9.64,15.92,14.69,24.17,15,9,.34,18.55-4.78,28.41-15.24a4,4,0,1,1,5.79,5.46C862.86,736.17,851.65,742.14,840.64,742.14Z" transform="translate(-741.65 -558.02)"/><path class="cls-5" d="M795.36,660.52a4,4,0,0,1-3.61-5.65,23.55,23.55,0,0,1,41.34,0,4,4,0,0,1-7.24,3.33,15.63,15.63,0,0,0-26.87,0A4,4,0,0,1,795.36,660.52Z" transform="translate(-741.65 -558.02)"/><path class="cls-5" d="M854,660.52a3.88,3.88,0,0,1-1.65-.37,4,4,0,0,1-2-5.28,23.55,23.55,0,0,1,41.34,0,4,4,0,0,1-7.24,3.33,15.62,15.62,0,0,0-26.86,0A4,4,0,0,1,854,660.52Z" transform="translate(-741.65 -558.02)"/><path class="cls-2" d="M898.07,611.79s-25.3,29.64-59.1,23-58.44,1.36-61.6,12c0,0-7-8.67-2.56-40.53S809.9,564.44,843,564.44s89,9.46,67.26,94C910.29,658.49,893.51,649.31,898.07,611.79Z" transform="translate(-741.65 -558.02)"/><g class="cls-4"><path class="cls-2" d="M788.71,606.25c4.16-29.64,31-40.32,61.36-41.66q-3.65-.15-7-.15c-33.13,0-63.75,9.95-68.22,41.81s2.56,40.53,2.56,40.53c1.1-3.72,4.85-7.12,10.7-9.68C787,630.85,786.64,621.06,788.71,606.25Z" transform="translate(-741.65 -558.02)"/></g><g class="cls-3"><path class="cls-2" d="M843,564.44c-1.22,0-2.44,0-3.66,0,32.52.75,81.61,12,64.89,87.75,3.08,4.62,6,6.25,6,6.25C932,573.9,876.18,564.44,843,564.44Z" transform="translate(-741.65 -558.02)"/></g><path class="cls-5" d="M910.29,662.47a4.09,4.09,0,0,1-1.92-.49c-.7-.39-15.75-9-15-40.08-10.44,8.82-30.52,21.63-55.14,16.8-34.14-6.71-55,2.29-57,9.22a4,4,0,0,1-6.91,1.36c-.83-1-8-11-3.4-43.58,4.09-29.18,29.72-45.24,72.17-45.24,30.25,0,51.85,8.06,64.18,23.95,13,16.83,15.38,42.08,6.92,75.07a4,4,0,0,1-2.27,2.66A4,4,0,0,1,910.29,662.47Zm-12.21-54.66a3.93,3.93,0,0,1,1.6.34,4,4,0,0,1,2.35,4.12c-2.62,21.58,2.16,33,6,38.41,5.87-27.1,3.48-47.73-7.11-61.38-10.75-13.86-30.23-20.88-57.89-20.88-26.87,0-59.83,6.66-64.28,38.38-2.28,16.26-1.45,26.09-.28,31.6,9.78-8.64,32.11-13.24,61.25-7.52,31.07,6.09,55.08-21.4,55.32-21.68A4,4,0,0,1,898.08,607.81Z" transform="translate(-741.65 -558.02)"/><path class="cls-5" d="M937.86,867.07H745.63a4,4,0,0,1-4-4.12c.07-1.87,1.82-46,22.42-68.18,8.3-8.93,26.35-14.43,32.68-16.15a4.44,4.44,0,0,1,.52-.15l.22-.05a4,4,0,0,1,5,2.88,3.78,3.78,0,0,1,0,1.77c2.24,7.85,13.21,41.19,38,41.19,28.13,0,38.38-42.39,38.48-42.82a4.26,4.26,0,0,1,.26-.76,3.87,3.87,0,0,1,.16-.42,4,4,0,0,1,4.47-2.32c16.38,3.41,28.35,9.07,35.55,16.83C940,817,941.78,861.08,941.84,863a4,4,0,0,1-1.11,2.9A4,4,0,0,1,937.86,867.07Zm-188-8H933.61c-.94-11.23-4.87-42.59-20-58.92h0c-5.55-6-14.87-10.56-27.74-13.65-3.26,11.06-15.83,45.69-45.34,45.69-28.76,0-41.49-33.17-45.11-44.94-9.7,2.94-20.51,7.55-25.48,12.9C754.75,816.52,750.83,847.88,749.89,859.11Z" transform="translate(-741.65 -558.02)"/></g></g></svg>