<svg xmlns="http://www.w3.org/2000/svg" viewBox="0 0 200.2 306.61"><defs><style>.cls-1{isolation:isolate;}.cls-2{fill:#ef3d52;}.cls-3,.cls-5{opacity:0.5;}.cls-3{mix-blend-mode:multiply;}.cls-4{fill:#be1e2d;}.cls-5{mix-blend-mode:screen;}.cls-6{fill:#f6a2ae;}.cls-7{fill:#fdc795;}.cls-8{fill:#4f152a;}.cls-9{fill:#747ead;}.cls-10{fill:#fff;}</style></defs><title>character4</title><g class="cls-1"><g id="Layer_1" data-name="Layer 1"><path class="cls-2" d="M633.12,350c-12.14-13.07-37.39-17.28-55.18-18.59v14.84c-4.31,10.94-19.57,10.62-19.58,10.62s-15.26.32-19.57-10.62V331.37c-17.79,1.31-43,5.52-55.18,18.59-19.84,21.35-21.36,65.6-21.36,65.6H654.48S653,371.31,633.12,350Z" transform="translate(-458.27 -112.93)"/><g class="cls-3"><path class="cls-4" d="M624.8,354.31c16.06,17.29,20.12,49.58,21.08,61.25h8.6S653,371.31,633.12,350c-12.14-13.07-37.39-17.28-55.18-18.59v5.16C594.6,338.48,614.46,343.17,624.8,354.31Z" transform="translate(-458.27 -112.93)"/></g><g class="cls-5"><path class="cls-6" d="M491.7,354.31c-16.06,17.29-20.11,49.58-21.08,61.25H462s1.53-44.25,21.36-65.6c12.14-13.07,37.39-17.28,55.18-18.59v5.16C521.91,338.48,502,343.17,491.7,354.31Z" transform="translate(-458.27 -112.93)"/></g><path class="cls-7" d="M558.36,321h0a55.78,55.78,0,0,1-19.57-3.47v28.71c4.31,10.94,19.56,10.62,19.57,10.62s15.27.32,19.58-10.62V317.5A55.83,55.83,0,0,1,558.36,321Z" transform="translate(-458.27 -112.93)"/><g class="cls-3"><path class="cls-7" d="M569.89,319.8v26.41c-2.89,7.35-10.72,9.61-15.55,10.3a28.79,28.79,0,0,0,4,.32s15.27.32,19.58-10.62V317.5A55.48,55.48,0,0,1,569.89,319.8Z" transform="translate(-458.27 -112.93)"/></g><g class="cls-5"><path class="cls-7" d="M546.29,319.8v26.41c2.9,7.35,10.72,9.61,15.56,10.3a28.79,28.79,0,0,1-4,.32s-15.27.32-19.58-10.62V317.5A55.34,55.34,0,0,0,546.29,319.8Z" transform="translate(-458.27 -112.93)"/></g><path class="cls-8" d="M558.49,360.81h-.37c-1.93,0-18-.42-23-13.14a4.07,4.07,0,0,1-.28-1.46V317.5a4,4,0,0,1,5.38-3.74,52.81,52.81,0,0,0,36.37,0,4,4,0,0,1,5.37,3.74v28.71a3.87,3.87,0,0,1-.28,1.46C576.63,360.39,560.57,360.81,558.49,360.81Zm-15.72-15.43c3.6,7.56,15.4,7.45,15.52,7.46.3,0,12.06.1,15.67-7.46V322.94a61.73,61.73,0,0,1-31.19,0Z" transform="translate(-458.27 -112.93)"/><path class="cls-8" d="M654.48,419.54H462.25a4,4,0,0,1-4-4.12c.06-1.87,1.81-46,22.42-68.17,12.85-13.84,38.53-18.43,57.8-19.85a4,4,0,0,1,4.28,4v14c3.6,7.56,15.4,7.45,15.52,7.46.3,0,12.06.1,15.67-7.46v-14a4,4,0,0,1,4.27-4c19.27,1.41,44.95,6,57.81,19.85,20.61,22.19,22.35,66.3,22.42,68.17a4,4,0,0,1-4,4.12Zm-188-8H650.22c-.94-11.23-4.86-42.59-20-58.91h0c-8.16-8.79-25.21-14.76-48.28-17v10.5a3.87,3.87,0,0,1-.28,1.46C576.39,361,559,360.83,558.29,360.81s-18,.17-23.21-13.14a4.07,4.07,0,0,1-.28-1.46v-10.5c-23.07,2.2-40.12,8.17-48.28,17C471.34,369,467.43,400.36,466.5,411.58Z" transform="translate(-458.27 -112.93)"/><path class="cls-8" d="M497.31,419.54h-.06a4,4,0,0,1-3.92-4c.08-5.61.88-24.3,7.65-29.08a4,4,0,0,1,4.6,6.51c-2.09,1.47-4.13,12.28-4.29,22.69A4,4,0,0,1,497.31,419.54Z" transform="translate(-458.27 -112.93)"/><path class="cls-8" d="M619.42,419.54a4,4,0,0,1-4-3.92c-.16-10.41-2.21-21.22-4.29-22.69a4,4,0,0,1,4.59-6.51c6.77,4.78,7.58,23.47,7.66,29.08a4,4,0,0,1-3.92,4Z" transform="translate(-458.27 -112.93)"/><path class="cls-7" d="M489,255.8c0-3.8-.87-27.89,1.23-55h0s-22.59-3.9-22.59,17.27,4.57,45,22.59,45h0A42.75,42.75,0,0,1,489,255.8Z" transform="translate(-458.27 -112.93)"/><path class="cls-7" d="M627.78,255.8c0-3.8.87-27.89-1.24-55h0s22.6-3.9,22.6,17.27-4.57,45-22.6,45h0A42.11,42.11,0,0,0,627.78,255.8Z" transform="translate(-458.27 -112.93)"/><path class="cls-8" d="M490.18,267c-17.14,0-26.58-17.39-26.58-49,0-7.18,2.28-12.74,6.76-16.51,7.32-6.17,18-5,20.13-4.74h2.25a4,4,0,0,1,3.94,4.56c-3.7,25.12-3.75,54.09-3.75,54.45a41.72,41.72,0,0,0,1.13,6.32,4,4,0,0,1-3.88,4.89Zm-4.07-62.54c-3.05,0-7.52.52-10.64,3.17-2.63,2.22-3.9,5.62-3.9,10.4,0,13.57,1.9,35.29,13.6,40.06a18.78,18.78,0,0,1-.21-2.3,463.71,463.71,0,0,1,3.23-51.25C487.64,204.51,486.93,204.47,486.11,204.47Z" transform="translate(-458.27 -112.93)"/><path class="cls-8" d="M480.1,242a4,4,0,0,1-3.86-3c-2.55-10.29-1.77-17.81,2.33-22.34a13.23,13.23,0,0,1,11.24-4,4,4,0,0,1-1.08,7.89,5.33,5.33,0,0,0-4.3,1.55c-1.22,1.39-2.9,5.19-.46,15A4,4,0,0,1,480.1,242Z" transform="translate(-458.27 -112.93)"/><path class="cls-8" d="M637.1,242a4.07,4.07,0,0,1-1-.12,4,4,0,0,1-2.9-4.82c2.43-9.84.75-13.65-.47-15a5.35,5.35,0,0,0-4.3-1.55,4,4,0,0,1-4.43-3.45,4,4,0,0,1,3.35-4.44,13.27,13.27,0,0,1,11.24,4c4.1,4.53,4.89,12.05,2.34,22.34A4,4,0,0,1,637.1,242Z" transform="translate(-458.27 -112.93)"/><path class="cls-7" d="M618.63,177.61c-14.12-48.82-60.27-48.82-60.27-48.82s-46.15,0-60.26,48.82C486.71,217,489,249.7,489,255.8s15.25,77.05,69.41,77.05,69.42-71,69.42-77.05S630,217,618.63,177.61Z" transform="translate(-458.27 -112.93)"/><g class="cls-3"><path class="cls-7" d="M618.63,177.61c-14.12-48.82-60.27-48.82-60.27-48.82a45.62,45.62,0,0,0-5,.41c12.32,1.58,44,9.44,55.25,48.41,11.39,39.4,9.16,72.09,9.16,78.19,0,5.91-14.31,72.63-64.41,76.84,1.63.13,3.3.21,5,.21,54.16,0,69.42-71,69.42-77.05S630,217,618.63,177.61Z" transform="translate(-458.27 -112.93)"/></g><g class="cls-5"><path class="cls-7" d="M497.87,177.61c14.12-48.82,60.27-48.82,60.27-48.82a45.62,45.62,0,0,1,5,.41c-12.32,1.58-44,9.44-55.26,48.41-11.38,39.4-9.15,72.09-9.15,78.19,0,5.91,14.31,72.63,64.41,76.84-1.64.13-3.31.21-5,.21-54.17,0-69.42-71-69.42-77.05S486.48,217,497.87,177.61Z" transform="translate(-458.27 -112.93)"/></g><path class="cls-8" d="M558.36,336.83c-56.45,0-73.4-73.14-73.4-81,0-.59,0-1.45,0-2.54a250.91,250.91,0,0,1,9.36-76.75c14.78-51.11,63.6-51.7,64.09-51.7s49.32.59,64.09,51.7h0a250.58,250.58,0,0,1,9.36,76.75c0,1.09,0,2,0,2.54C631.76,263.69,614.81,336.83,558.36,336.83Zm0-204.06c-1.75,0-43.35.7-56.44,45.95a243.14,243.14,0,0,0-9.05,74.33c0,1.19.06,2.11.06,2.75.05,7.11,15.48,73.06,65.43,73.06s65.39-65.95,65.44-73.06c0-.64,0-1.56.05-2.75a242.81,242.81,0,0,0-9.05-74.33C601.72,133.47,560.12,132.78,558.36,132.77Z" transform="translate(-458.27 -112.93)"/><path class="cls-8" d="M626.54,267a4,4,0,0,1-3.88-4.89,42.5,42.5,0,0,0,1.14-6.32v-.47a391.45,391.45,0,0,0-3.75-54,4,4,0,0,1,3.93-4.55h2.26c2.17-.3,12.81-1.43,20.13,4.74,4.48,3.77,6.75,9.33,6.75,16.51C653.12,249.62,643.68,267,626.54,267Zm2-62.46a392.78,392.78,0,0,1,3.24,50.79v.46a18.13,18.13,0,0,1-.2,2.29c11.7-4.77,13.6-26.48,13.6-40,0-4.78-1.28-8.18-3.9-10.4C637.31,204.29,631.19,204.34,628.52,204.55Z" transform="translate(-458.27 -112.93)"/><path class="cls-8" d="M587.69,222.12a8,8,0,1,0,8,8A8,8,0,0,0,587.69,222.12Z" transform="translate(-458.27 -112.93)"/><path class="cls-8" d="M529,222.12a8,8,0,1,0,8,8A8,8,0,0,0,529,222.12Z" transform="translate(-458.27 -112.93)"/><path class="cls-8" d="M561.64,270.33c-9.4,0-14.19-5.83-15.47-9.24a4,4,0,0,1,.55-3.78c3.28-4.38,6.73-16.1,7.78-20.25a4,4,0,0,1,7.72,2c-.38,1.51-3.52,13.57-7.61,20.72,1.27,1.39,4,3.16,9.21,2.48a4,4,0,1,1,1,7.9A26,26,0,0,1,561.64,270.33Z" transform="translate(-458.27 -112.93)"/><path class="cls-8" d="M559.13,298.08h0c-12.75,0-25.36-5-32.91-13a4,4,0,0,1,5.8-5.47c6.09,6.46,16.48,10.47,27.11,10.47,10.18,0,19.3-3.71,25.67-10.47a4,4,0,0,1,5.79,5.47C582.7,293.47,571.53,298.08,559.13,298.08Z" transform="translate(-458.27 -112.93)"/><path class="cls-8" d="M546.09,219.92a4,4,0,0,1-3.62-2.32,15.63,15.63,0,0,0-26.88,0,4,4,0,0,1-7.23-3.36,23.55,23.55,0,0,1,41.35,0,4,4,0,0,1-2,5.28A3.93,3.93,0,0,1,546.09,219.92Z" transform="translate(-458.27 -112.93)"/><path class="cls-8" d="M570.64,219.92a3.93,3.93,0,0,1-1.66-.37,4,4,0,0,1-2-5.28,23.55,23.55,0,0,1,41.35,0,4,4,0,0,1-7.24,3.33,15.63,15.63,0,0,0-26.87,0A4,4,0,0,1,570.64,219.92Z" transform="translate(-458.27 -112.93)"/><path class="cls-9" d="M521.07,170.17s1.79,16.43,21,17.42,71-31.13,84.44,39.68c0,0,14.32-24.25,6.67-59.59s-37-50.77-71.36-50.77-73,7.23-66.7,41.81c0,0-33.33,9.15-5,66.3C490.18,225,521.07,198,521.07,170.17Z" transform="translate(-458.27 -112.93)"/><g class="cls-5"><path class="cls-9" d="M503.78,160.71c-6.25-34.58,32.35-41.81,66.69-41.81a101.85,101.85,0,0,1,17.94,1.54,96.09,96.09,0,0,0-26.56-3.53c-34.35,0-73,7.23-66.7,41.81,0,0-33.33,9.15-5,66.3,0,0,2.16-1.89,5.32-5.16C473.32,169.12,503.78,160.71,503.78,160.71Z" transform="translate(-458.27 -112.93)"/></g><g class="cls-3"><path class="cls-9" d="M633.21,167.68c-7.65-35.34-37-50.77-71.36-50.77-19.73,0-40.85,2.4-54.08,11,12.81-5,29.42-6.51,45.16-6.51,34.35,0,63.71,15.43,71.36,50.77a94.37,94.37,0,0,1-.57,43.46,112,112,0,0,1,2.82,11.65S640.86,203,633.21,167.68Z" transform="translate(-458.27 -112.93)"/></g><path class="cls-8" d="M626.54,231.26a4,4,0,0,1-3.91-3.24c-3.57-18.79-10.25-31.49-19.87-37.76-13-8.48-30-4.53-43.65-1.36-6.72,1.56-12.54,2.91-17.21,2.67-8.92-.46-14.92-4-18.79-8.22C516.32,207.24,493.92,227,492.8,228a4,4,0,0,1-6.18-1.23c-11.94-24-14.89-43.16-8.78-56.81a28.07,28.07,0,0,1,12.92-13.74c-1.09-9.71,1.17-18,6.73-24.64,10.35-12.39,32-18.67,64.36-18.67,40.41,0,67.84,19.65,75.25,53.91,7.89,36.44-6.51,61.41-7.13,62.46A4,4,0,0,1,626.54,231.26ZM561.85,120.89c-29.46,0-49.6,5.47-58.25,15.82-4.64,5.55-6.12,12.52-4.53,21.3a4,4,0,0,1-2.87,4.55c-.27.08-7.41,2.26-11.17,10.86-3.21,7.33-4.52,21,6.38,44.91,8-8.07,25.68-28.16,25.68-48.16a4,4,0,0,1,7.94-.45c.17,1.36,2.07,13.11,17.28,13.89,3.54.2,9.11-1.1,15-2.47,14.32-3.33,33.93-7.88,49.79,2.45,9.3,6,16,16.19,20.43,30.83a89.94,89.94,0,0,0,1.79-45.9C622.77,138.25,598.17,120.89,561.85,120.89Z" transform="translate(-458.27 -112.93)"/><path class="cls-10" d="M577.94,346.21c-4.31,10.94-19.57,10.62-19.58,10.62s-15.26.32-19.57-10.62v69.35h39.15V346.21Z" transform="translate(-458.27 -112.93)"/><path class="cls-8" d="M577.94,419.54H538.79a4,4,0,0,1-4-4V346.21a4,4,0,0,1,7.69-1.46c3.23,8.19,15.67,8.1,15.8,8.09.29,0,12.72.1,15.94-8.09a4,4,0,0,1,7.69,1.46v69.35a4,4,0,0,1-4,4Zm-35.17-8H574v-54.9c-6.87,4.21-15.17,4.14-15.67,4.13s-8.66.09-15.52-4.13Z" transform="translate(-458.27 -112.93)"/><path class="cls-8" d="M538.79,380a4,4,0,0,1-4-4V346.21a4,4,0,0,1,7.69-1.46c3.23,8.19,15.67,8.1,15.8,8.09a3.92,3.92,0,0,1,3.74,2.45,4,4,0,0,1-.88,4.38l-19.58,19.16A4,4,0,0,1,538.79,380Zm4-23.29v9.84l7-6.89A26.79,26.79,0,0,1,542.77,356.68Z" transform="translate(-458.27 -112.93)"/><path class="cls-8" d="M577.94,380a4,4,0,0,1-2.79-1.14l-19.57-19.16a4,4,0,0,1-.89-4.38,4.07,4.07,0,0,1,3.75-2.45c.12,0,12.56.11,15.79-8.09a4,4,0,0,1,7.69,1.46V376a4,4,0,0,1-4,4Zm-11-20.34,7,6.89v-9.84A26.71,26.71,0,0,1,566.92,359.63Z" transform="translate(-458.27 -112.93)"/><polygon class="cls-9" points="100.1 243.9 89.36 254.41 100.1 266.63 110.83 254.41 100.1 243.9"/><polygon class="cls-9" points="104.01 262.04 100.04 266.56 96.07 262.04 90.31 302.63 99.99 302.63 100.1 302.63 109.78 302.63 104.01 262.04"/><path class="cls-8" d="M558.36,383.54a4,4,0,0,1-3-1.36L544.64,370a4,4,0,0,1,.2-5.47L555.58,354a4,4,0,0,1,5.57,0l10.73,10.51a4,4,0,0,1,.21,5.47l-10.73,12.22A4,4,0,0,1,558.36,383.54Zm-5.25-16,5.25,6,5.26-6-5.26-5.14Z" transform="translate(-458.27 -112.93)"/><path class="cls-8" d="M568,419.54H548.57a4,4,0,0,1-3.94-4.54l5.77-40.59a4,4,0,0,1,6.93-2.06l1,1.11,1-1.11a4,4,0,0,1,6.93,2.06L572,415a4,4,0,0,1-3.94,4.54Zm-14.88-8h10.29l-4-28.27a4,4,0,0,1-2.26,0Z" transform="translate(-458.27 -112.93)"/></g></g></svg>