<svg xmlns="http://www.w3.org/2000/svg" viewBox="0 0 200.2 306.61"><defs><style>.cls-1{isolation:isolate;}.cls-2{fill:#fdc795;}.cls-3{fill:#4f152a;}.cls-4,.cls-5{opacity:0.5;}.cls-4{mix-blend-mode:multiply;}.cls-5{mix-blend-mode:screen;}.cls-6{fill:#60ccf2;}.cls-7{fill:#fbb040;}</style></defs><title>character8</title><g class="cls-1"><g id="Layer_1" data-name="Layer 1"><path class="cls-2" d="M199.51,243.92c0-3.8-.87-27.88,1.24-55h0s-22.59-3.9-22.59,17.27,4.57,45,22.59,45h0A43.25,43.25,0,0,1,199.51,243.92Z" transform="translate(-168.83 -112.93)"/><path class="cls-2" d="M338.35,243.92c0-3.8.87-27.88-1.24-55h0s22.6-3.9,22.6,17.27-4.58,45-22.6,45h0A42.16,42.16,0,0,0,338.35,243.92Z" transform="translate(-168.83 -112.93)"/><path class="cls-3" d="M200.75,255.13c-17.14,0-26.58-17.39-26.58-49,0-7.18,2.28-12.74,6.76-16.51,8-6.74,20-4.77,20.5-4.68a4,4,0,0,1,3.29,4.23c-1.79,23.13-1.41,44-1.27,51.89,0,1.32.05,2.28.05,2.83h0a41.72,41.72,0,0,0,1.13,6.32,4,4,0,0,1-3.88,4.89Zm-4.26-62.54c-3.05,0-7.4.58-10.45,3.17-2.63,2.22-3.9,5.63-3.9,10.4,0,13.57,1.9,35.29,13.6,40.06a16.83,16.83,0,0,1-.21-2.3c0-.52,0-1.43,0-2.69C195.35,233.72,195,214.48,196.49,192.59Z" transform="translate(-168.83 -112.93)"/><path class="cls-3" d="M190.67,230.15a4,4,0,0,1-3.86-3c-2.55-10.29-1.77-17.81,2.33-22.34a13.27,13.27,0,0,1,11.24-4.05,4,4,0,0,1-1.09,7.89,5.32,5.32,0,0,0-4.29,1.55c-1.22,1.39-2.9,5.2-.46,15a4,4,0,0,1-3.87,4.94Z" transform="translate(-168.83 -112.93)"/><path class="cls-3" d="M347.67,230.15a4,4,0,0,1-1-.12,4,4,0,0,1-2.91-4.82c2.44-9.84.76-13.65-.46-15a5.35,5.35,0,0,0-4.3-1.55,4,4,0,0,1-4.43-3.44,4,4,0,0,1,3.35-4.45,13.27,13.27,0,0,1,11.24,4.05c4.1,4.53,4.88,12.05,2.33,22.34A4,4,0,0,1,347.67,230.15Z" transform="translate(-168.83 -112.93)"/><path class="cls-2" d="M329.19,165.73c-14.11-48.82-60.26-48.82-60.26-48.82s-46.15,0-60.26,48.82c-11.39,39.4-9.16,72.09-9.16,78.19S214.77,321,268.93,321s69.42-70.94,69.42-77.05S340.58,205.13,329.19,165.73Z" transform="translate(-168.83 -112.93)"/><g class="cls-4"><path class="cls-2" d="M329.19,165.73c-14.11-48.82-60.26-48.82-60.26-48.82a45.44,45.44,0,0,0-5,.41c12.32,1.58,44,9.44,55.25,48.41,11.39,39.4,9.16,72.09,9.16,78.19,0,5.91-14.31,72.63-64.41,76.84q2.44.21,5,.21c54.16,0,69.42-70.94,69.42-77.05S340.58,205.13,329.19,165.73Z" transform="translate(-168.83 -112.93)"/></g><g class="cls-5"><path class="cls-2" d="M208.44,165.73c14.11-48.82,60.26-48.82,60.26-48.82a45.69,45.69,0,0,1,5,.41c-12.33,1.58-44,9.44-55.26,48.41-11.39,39.4-9.15,72.09-9.15,78.19,0,5.91,14.31,72.63,64.41,76.84-1.64.14-3.31.21-5,.21-54.16,0-69.41-70.94-69.41-77.05S197.05,205.13,208.44,165.73Z" transform="translate(-168.83 -112.93)"/></g><path class="cls-3" d="M268.93,325c-56.45,0-73.4-73.14-73.4-81,0-.59,0-1.44-.05-2.54a250.58,250.58,0,0,1,9.36-76.75c14.78-51.11,63.6-51.7,64.09-51.7s49.32.59,64.09,51.7a250.58,250.58,0,0,1,9.36,76.75c0,1.1-.05,2-.05,2.54C342.33,251.81,325.38,325,268.93,325Zm0-204.06c-1.75,0-43.35.7-56.43,46a243.17,243.17,0,0,0-9.05,74.34c0,1.18.06,2.1.06,2.74C203.54,251,219,317,268.93,317s65.39-66,65.44-73.07c0-.64,0-1.56.05-2.74a242.84,242.84,0,0,0-9.05-74.34h0C312.29,121.59,270.69,120.9,268.92,120.89Z" transform="translate(-168.83 -112.93)"/><path class="cls-3" d="M337.11,255.13a4,4,0,0,1-3.88-4.89,44.06,44.06,0,0,0,1.14-6.32h0c0-.55,0-1.51,0-2.83.14-7.87.53-28.75-1.27-51.89,0-.1,0-.2,0-.31,0-4.26,4.44-4.26,8-4.26,3.76,0,9.22.62,13.87,3.6,4,2.54,8.68,7.71,8.68,17.93C363.69,237.74,354.25,255.13,337.11,255.13Zm4.26-62.54c1.49,21.89,1.14,41.13,1,48.64,0,1.26,0,2.17,0,2.69a18.27,18.27,0,0,1-.2,2.3c11.7-4.77,13.59-26.49,13.59-40.06,0-4.77-1.27-8.18-3.89-10.4C348.77,193.17,344.42,192.61,341.37,192.59Z" transform="translate(-168.83 -112.93)"/><path class="cls-2" d="M268.93,321h0a55.83,55.83,0,0,1-19.58-3.47v28.71c4.32,10.94,19.57,10.62,19.58,10.62s15.26.32,19.58-10.62V317.5A55.87,55.87,0,0,1,268.93,321Z" transform="translate(-168.83 -112.93)"/><g class="cls-4"><path class="cls-2" d="M280.46,319.8v26.41c-2.9,7.35-10.72,9.61-15.55,10.3a28.79,28.79,0,0,0,4,.32s15.26.32,19.58-10.62V317.5A55.48,55.48,0,0,1,280.46,319.8Z" transform="translate(-168.83 -112.93)"/></g><g class="cls-5"><path class="cls-2" d="M256.86,319.8v26.41c2.9,7.35,10.72,9.61,15.55,10.3a28.6,28.6,0,0,1-4,.32s-15.26.32-19.57-10.62V317.5A55.34,55.34,0,0,0,256.86,319.8Z" transform="translate(-168.83 -112.93)"/></g><path class="cls-3" d="M269.05,360.81h-.37c-1.94,0-18-.42-23-13.14a4.07,4.07,0,0,1-.28-1.46V317.5a4,4,0,0,1,5.37-3.74A52,52,0,0,0,268.93,317h0a52,52,0,0,0,18.19-3.23,4,4,0,0,1,5.37,3.74v28.71a4.07,4.07,0,0,1-.28,1.46C287.2,360.39,271.13,360.81,269.05,360.81Zm-.19-8c.3,0,12.06.1,15.66-7.46V322.94a61.69,61.69,0,0,1-31.18,0v22.44C256.94,352.94,268.74,352.84,268.86,352.84Z" transform="translate(-168.83 -112.93)"/><path class="cls-6" d="M343.69,350c-12.14-13.07-37.39-17.28-55.18-18.59v14.84c-4.32,10.94-19.57,10.62-19.58,10.62s-15.26.32-19.58-10.62V331.37c-17.79,1.31-43,5.52-55.18,18.59-19.83,21.35-21.36,65.6-21.36,65.6H365.05S363.52,371.31,343.69,350Z" transform="translate(-168.83 -112.93)"/><g class="cls-4"><path class="cls-6" d="M343.69,350c-12.14-13.07-37.39-17.28-55.18-18.59v1.36c15.66,2.24,33.1,7,42.57,17.23,19.83,21.35,21.36,65.6,21.36,65.6h12.61S363.52,371.31,343.69,350Z" transform="translate(-168.83 -112.93)"/></g><g class="cls-5"><path class="cls-6" d="M194,350c12.14-13.07,37.39-17.28,55.18-18.59v1.36c-15.66,2.24-33.1,7-42.57,17.23-19.84,21.35-21.36,65.6-21.36,65.6H172.59S174.11,371.31,194,350Z" transform="translate(-168.83 -112.93)"/></g><path class="cls-3" d="M365.05,419.54H172.81a4,4,0,0,1-2.86-1.21,4,4,0,0,1-1.12-2.91c.07-1.87,1.82-46,22.43-68.17,12.85-13.84,38.53-18.43,57.8-19.85a4,4,0,0,1,3,1.06,4,4,0,0,1,1.28,2.91v14c3.6,7.56,15.4,7.46,15.52,7.46.3,0,12.06.1,15.66-7.46v-14a4,4,0,0,1,4.28-4c19.27,1.41,44.95,6,57.8,19.85,20.61,22.19,22.36,66.3,22.43,68.17a4,4,0,0,1-1.12,2.91A4,4,0,0,1,365.05,419.54Zm-188-8H360.79c-.94-11.23-4.86-42.59-20-58.91h0c-8.16-8.79-25.21-14.76-48.28-17v10.5a4.07,4.07,0,0,1-.28,1.46C287,361,269.59,360.82,268.86,360.81s-18,.18-23.21-13.14a4.07,4.07,0,0,1-.28-1.46v-10.5c-23.07,2.2-40.12,8.17-48.28,17C181.91,369,178,400.36,177.07,411.58Z" transform="translate(-168.83 -112.93)"/><circle class="cls-3" cx="298.26" cy="204.62" r="7.96" transform="translate(-226.16 157.91) rotate(-45)"/><path class="cls-3" d="M239.6,196.66a8,8,0,1,0,8,8A8,8,0,0,0,239.6,196.66Z" transform="translate(-168.83 -112.93)"/><path class="cls-3" d="M272.21,249c-9.4,0-14.19-5.83-15.47-9.24a4,4,0,0,1,.54-3.78c3.29-4.38,6.74-16.1,7.79-20.25a4,4,0,0,1,7.72,2c-.38,1.51-3.52,13.57-7.61,20.72,1.27,1.39,4,3.16,9.21,2.48a4,4,0,0,1,1,7.89A24.4,24.4,0,0,1,272.21,249Z" transform="translate(-168.83 -112.93)"/><path class="cls-3" d="M269.7,286.2h0c-12.75,0-25.36-5-32.91-13a4,4,0,1,1,5.79-5.47c6.1,6.46,16.49,10.48,27.12,10.48,10.18,0,19.29-3.72,25.66-10.48a4,4,0,0,1,5.8,5.47C293.27,281.59,282.1,286.2,269.7,286.2Z" transform="translate(-168.83 -112.93)"/><path class="cls-7" d="M249.35,346.21V327.63s-10.28,4-12.94,13.93c0,0,4.15,22.67,24.06,31.91,0,0-2.49-10.17,8.46-16.64C268.92,356.83,253.67,357.15,249.35,346.21Z" transform="translate(-168.83 -112.93)"/><path class="cls-7" d="M288.51,327.63v18.58c-4.32,10.94-19.57,10.62-19.58,10.62,10.95,6.47,8.46,16.64,8.46,16.64,19.91-9.24,24.06-31.91,24.06-31.91C298.79,331.61,288.51,327.63,288.51,327.63Z" transform="translate(-168.83 -112.93)"/><path class="cls-3" d="M260.47,377.45a4,4,0,0,1-1.68-.37c-21.53-10-26.11-33.79-26.29-34.8a3.93,3.93,0,0,1,.06-1.74c3.15-11.78,14.86-16.44,15.36-16.63a4,4,0,0,1,5.42,3.72v17.75c3.6,7.56,15.39,7.48,15.52,7.46h.06a4,4,0,0,1,2,7.41c-8.31,4.91-6.64,12.2-6.62,12.27a4,4,0,0,1-3.87,4.93Zm-19.94-35.74c.86,3.51,4.78,16.83,16.19,25a19.54,19.54,0,0,1,3.28-7.16c-5.33-1.5-11.56-4.77-14.35-11.86a4.07,4.07,0,0,1-.28-1.46V334.79A16.21,16.21,0,0,0,240.53,341.71Z" transform="translate(-168.83 -112.93)"/><path class="cls-3" d="M277.39,377.45a4,4,0,0,1-3.87-4.93c.16-.72,1.39-7.54-6.61-12.27a4,4,0,0,1-1.81-4.51,3.92,3.92,0,0,1,3.91-2.9c.11,0,11.91.1,15.51-7.46V327.63a4,4,0,0,1,5.42-3.72c.5.19,12.21,4.85,15.36,16.63a3.93,3.93,0,0,1,.06,1.74c-.18,1-4.76,24.8-26.29,34.8A4,4,0,0,1,277.39,377.45Zm.47-17.92a19.51,19.51,0,0,1,3.28,7.17c11.47-8.17,15.35-21.47,16.2-25a16.23,16.23,0,0,0-4.85-6.92v11.41a4.07,4.07,0,0,1-.28,1.46C289.42,354.76,283.19,358,277.86,359.53Z" transform="translate(-168.83 -112.93)"/><path class="cls-3" d="M272.41,386.19a3.49,3.49,0,1,1-3.48-3.48A3.48,3.48,0,0,1,272.41,386.19Z" transform="translate(-168.83 -112.93)"/><circle class="cls-3" cx="100.1" cy="290.02" r="3.48"/><path class="cls-3" d="M256.66,194.46a4,4,0,0,1-3.62-2.32,15.63,15.63,0,0,0-26.89,0,4,4,0,0,1-7.22-3.36,23.55,23.55,0,0,1,41.34,0,4,4,0,0,1-1.95,5.29A4.11,4.11,0,0,1,256.66,194.46Z" transform="translate(-168.83 -112.93)"/><path class="cls-3" d="M281.21,194.46a4.07,4.07,0,0,1-1.66-.36,4,4,0,0,1-2-5.28,23.54,23.54,0,0,1,41.34,0,4,4,0,1,1-7.23,3.33,15.63,15.63,0,0,0-26.87,0A4,4,0,0,1,281.21,194.46Z" transform="translate(-168.83 -112.93)"/><path class="cls-3" d="M207.88,419.54h-.07a4,4,0,0,1-3.92-4c.09-5.61.89-24.3,7.66-29.08a4,4,0,1,1,4.59,6.51c-2.08,1.47-4.12,12.28-4.28,22.69A4,4,0,0,1,207.88,419.54Z" transform="translate(-168.83 -112.93)"/><path class="cls-3" d="M330,419.54a4,4,0,0,1-4-3.92c-.16-10.41-2.2-21.22-4.28-22.69a4,4,0,0,1,4.59-6.51c6.77,4.78,7.57,23.47,7.66,29.08a4,4,0,0,1-3.92,4Z" transform="translate(-168.83 -112.93)"/></g></g></svg>