<svg xmlns="http://www.w3.org/2000/svg" viewBox="0 0 200.2 306.61"><defs><style>.cls-1{isolation:isolate;}.cls-2{fill:#fdc795;}.cls-3,.cls-4{opacity:0.5;}.cls-3{mix-blend-mode:multiply;}.cls-4{mix-blend-mode:screen;}.cls-5{fill:#4f152a;}.cls-6{fill:#ef4056;}.cls-7{fill:#be1e2d;}.cls-8{fill:#f37a8b;}.cls-9{fill:#6d6e71;}.cls-10{fill:#fff;}</style></defs><title>character7</title><g class="cls-1"><g id="Layer_1" data-name="Layer 1"><path class="cls-2" d="M1111.47,321h0a55.83,55.83,0,0,1-19.58-3.47v28.71c4.31,10.94,19.57,10.62,19.58,10.62s15.26.32,19.58-10.62V317.5A55.87,55.87,0,0,1,1111.47,321Z" transform="translate(-1011.37 -112.93)"/><g class="cls-3"><path class="cls-2" d="M1123,319.8v26.41c-2.9,7.35-10.72,9.61-15.56,10.3a29,29,0,0,0,4,.32s15.26.32,19.58-10.62V317.5A55.84,55.84,0,0,1,1123,319.8Z" transform="translate(-1011.37 -112.93)"/></g><g class="cls-4"><path class="cls-2" d="M1099.4,319.8v26.41c2.9,7.35,10.72,9.61,15.55,10.3a28.69,28.69,0,0,1-4,.32s-15.26.32-19.58-10.62V317.5A55.84,55.84,0,0,0,1099.4,319.8Z" transform="translate(-1011.37 -112.93)"/></g><path class="cls-5" d="M1111.59,360.81h-.37c-1.94,0-18-.42-23-13.14a3.87,3.87,0,0,1-.28-1.46V317.5a4,4,0,0,1,5.37-3.74,52.83,52.83,0,0,0,36.38,0,4,4,0,0,1,5.37,3.74v28.71a4.07,4.07,0,0,1-.28,1.46C1129.74,360.39,1113.67,360.81,1111.59,360.81Zm-15.72-15.43c3.61,7.56,15.39,7.46,15.53,7.46s12.06.1,15.66-7.46V322.94a61.73,61.73,0,0,1-31.19,0Z" transform="translate(-1011.37 -112.93)"/><path class="cls-2" d="M1042.05,255.8c0-3.8-.87-27.89,1.24-55h0s-22.6-3.9-22.6,17.27,4.58,45,22.6,45h0A42.11,42.11,0,0,1,1042.05,255.8Z" transform="translate(-1011.37 -112.93)"/><path class="cls-2" d="M1180.89,255.8c0-3.8.87-27.89-1.24-55h0s22.6-3.9,22.6,17.27-4.58,45-22.6,45h0A43.2,43.2,0,0,0,1180.89,255.8Z" transform="translate(-1011.37 -112.93)"/><path class="cls-5" d="M1043.29,267c-17.14,0-26.58-17.39-26.58-49,0-7.18,2.27-12.74,6.76-16.51,7.31-6.17,18-5,20.12-4.74h2.26a4,4,0,0,1,3.93,4.56c-3.7,25.12-3.75,54.09-3.75,54.45a44.06,44.06,0,0,0,1.14,6.32,4,4,0,0,1-3.88,4.89Zm-4.07-62.54c-3,0-7.53.52-10.65,3.17-2.62,2.22-3.89,5.62-3.89,10.4,0,13.57,1.9,35.29,13.6,40.06a17,17,0,0,1-.21-2.3,463.71,463.71,0,0,1,3.23-51.25C1040.74,204.51,1040,204.47,1039.22,204.47Z" transform="translate(-1011.37 -112.93)"/><path class="cls-5" d="M1033.21,242a4,4,0,0,1-3.86-3c-2.55-10.29-1.77-17.81,2.33-22.34a13.23,13.23,0,0,1,11.24-4,4,4,0,0,1-1.09,7.89,5.32,5.32,0,0,0-4.29,1.55c-1.22,1.39-2.9,5.2-.46,15a4,4,0,0,1-2.91,4.82A4,4,0,0,1,1033.21,242Z" transform="translate(-1011.37 -112.93)"/><path class="cls-5" d="M1190.21,242a4,4,0,0,1-3.87-4.94c2.44-9.84.76-13.65-.46-15a5.35,5.35,0,0,0-4.3-1.55,4,4,0,0,1-4.43-3.45,4,4,0,0,1,3.35-4.44,13.27,13.27,0,0,1,11.24,4c4.1,4.53,4.88,12.05,2.33,22.34A4,4,0,0,1,1190.21,242Z" transform="translate(-1011.37 -112.93)"/><path class="cls-2" d="M1171.73,177.61c-14.11-48.82-60.26-48.82-60.26-48.82s-46.15,0-60.26,48.82c-11.39,39.4-9.16,72.09-9.16,78.19s15.26,77.05,69.42,77.05,69.42-71,69.42-77.05S1183.12,217,1171.73,177.61Z" transform="translate(-1011.37 -112.93)"/><g class="cls-3"><path class="cls-2" d="M1171.73,177.61c-14.11-48.82-60.26-48.82-60.26-48.82a45.44,45.44,0,0,0-5,.41c12.32,1.58,44,9.44,55.25,48.41,11.39,39.4,9.15,72.09,9.15,78.19,0,5.91-14.31,72.63-64.4,76.84,1.63.13,3.3.21,5,.21,54.16,0,69.42-71,69.42-77.05S1183.12,217,1171.73,177.61Z" transform="translate(-1011.37 -112.93)"/></g><g class="cls-4"><path class="cls-2" d="M1051,177.61c14.11-48.82,60.26-48.82,60.26-48.82a45.44,45.44,0,0,1,5,.41c-12.32,1.58-44,9.44-55.25,48.41-11.39,39.4-9.15,72.09-9.15,78.19,0,5.91,14.31,72.63,64.4,76.84-1.63.13-3.3.21-5,.21-54.16,0-69.42-71-69.42-77.05S1039.59,217,1051,177.61Z" transform="translate(-1011.37 -112.93)"/></g><path class="cls-5" d="M1111.47,336.83c-56.45,0-73.4-73.14-73.4-81,0-.59,0-1.45,0-2.54a250.58,250.58,0,0,1,9.36-76.75c14.77-51.11,63.6-51.7,64.09-51.7s49.31.59,64.09,51.7h0a250.58,250.58,0,0,1,9.36,76.75c0,1.09-.05,2-.05,2.54C1184.87,263.69,1167.92,336.83,1111.47,336.83Zm0-204.06c-1.76,0-43.36.7-56.44,45.95a242.81,242.81,0,0,0-9,74.33c0,1.19,0,2.11,0,2.75,0,7.11,15.49,73.06,65.44,73.06s65.39-65.95,65.44-73.06c0-.64,0-1.56,0-2.75a243.14,243.14,0,0,0-9-74.33C1154.78,133.3,1111.9,132.77,1111.47,132.77Z" transform="translate(-1011.37 -112.93)"/><path class="cls-5" d="M1179.65,267a4,4,0,0,1-3.88-4.89,44.06,44.06,0,0,0,1.14-6.32v-.48a389.74,389.74,0,0,0-3.76-54,4,4,0,0,1,3.94-4.55h2.26c2.17-.3,12.81-1.43,20.12,4.74,4.49,3.77,6.76,9.33,6.76,16.51C1206.23,249.62,1196.79,267,1179.65,267Zm2-62.46a394.52,394.52,0,0,1,3.24,50.78v.47a17,17,0,0,1-.21,2.3c11.7-4.77,13.6-26.49,13.6-40.06,0-4.78-1.27-8.18-3.89-10.4C1190.42,204.29,1184.3,204.34,1181.63,204.55Z" transform="translate(-1011.37 -112.93)"/><path class="cls-5" d="M1140.8,222.12a8,8,0,1,0,8,8A8,8,0,0,0,1140.8,222.12Z" transform="translate(-1011.37 -112.93)"/><circle class="cls-5" cx="1082.14" cy="230.08" r="7.96" transform="translate(-1035.29 141.85) rotate(-13.28)"/><path class="cls-5" d="M1114.74,270.33c-9.4,0-14.18-5.83-15.46-9.24a4,4,0,0,1,.54-3.78c3.28-4.38,6.74-16.1,7.79-20.25a4,4,0,0,1,7.72,2c-.38,1.51-3.52,13.57-7.61,20.72,1.27,1.39,4,3.16,9.21,2.48a4,4,0,0,1,1,7.9A26.19,26.19,0,0,1,1114.74,270.33Z" transform="translate(-1011.37 -112.93)"/><path class="cls-5" d="M1112.24,298.08h0c-12.75,0-25.37-5-32.91-13a4,4,0,1,1,5.79-5.47c6.09,6.46,16.49,10.47,27.12,10.47,10.18,0,19.29-3.71,25.66-10.47a4,4,0,0,1,5.8,5.47C1135.81,293.47,1124.63,298.08,1112.24,298.08Z" transform="translate(-1011.37 -112.93)"/><path class="cls-5" d="M1065.09,219.92a3.93,3.93,0,0,1-1.66-.37,4,4,0,0,1-2-5.28,23.55,23.55,0,0,1,41.34,0,4,4,0,0,1-7.23,3.33,15.63,15.63,0,0,0-26.87,0A4,4,0,0,1,1065.09,219.92Z" transform="translate(-1011.37 -112.93)"/><path class="cls-5" d="M1123.74,219.92a3.88,3.88,0,0,1-1.65-.37,4,4,0,0,1-2-5.28,23.55,23.55,0,0,1,41.34,0,4,4,0,0,1-7.23,3.33,15.63,15.63,0,0,0-26.87,0A4,4,0,0,1,1123.74,219.92Z" transform="translate(-1011.37 -112.93)"/><path class="cls-6" d="M1129,167.08a17.52,17.52,0,0,1-17.52,17.53h0A17.52,17.52,0,0,1,1094,167.08V134.44a17.52,17.52,0,0,1,17.52-17.53h0A17.52,17.52,0,0,1,1129,134.44Z" transform="translate(-1011.37 -112.93)"/><g class="cls-3"><path class="cls-7" d="M1111.47,116.91a17.35,17.35,0,0,0-3.4.34,17.52,17.52,0,0,1,14.12,17.19v32.64a17.52,17.52,0,0,1-14.12,17.19,17.35,17.35,0,0,0,3.4.34A17.52,17.52,0,0,0,1129,167.08V134.44A17.52,17.52,0,0,0,1111.47,116.91Z" transform="translate(-1011.37 -112.93)"/></g><g class="cls-4"><path class="cls-8" d="M1111.47,116.91a17.35,17.35,0,0,1,3.4.34,17.52,17.52,0,0,0-14.12,17.19v32.64a17.52,17.52,0,0,0,14.12,17.19,17.35,17.35,0,0,1-3.4.34A17.52,17.52,0,0,1,1094,167.08V134.44A17.52,17.52,0,0,1,1111.47,116.91Z" transform="translate(-1011.37 -112.93)"/></g><path class="cls-5" d="M1111.47,188.59a21.53,21.53,0,0,1-21.5-21.51V134.44a21.5,21.5,0,1,1,43,0v32.64A21.53,21.53,0,0,1,1111.47,188.59Zm0-67.7a13.56,13.56,0,0,0-13.54,13.55v32.64a13.54,13.54,0,1,0,27.08,0V134.44A13.56,13.56,0,0,0,1111.47,120.89Z" transform="translate(-1011.37 -112.93)"/><path class="cls-9" d="M1186.23,350c-12.14-13.07-37.39-17.28-55.18-18.59,0,9.56-11.12,12.85-11.12,12.85v11.31a28.18,28.18,0,0,1-16.92,0V344.22s-11.12-3.29-11.12-12.85c-17.79,1.31-43,5.52-55.18,18.59-19.83,21.35-21.36,65.6-21.36,65.6h192.24S1206.06,371.31,1186.23,350Z" transform="translate(-1011.37 -112.93)"/><path class="cls-5" d="M1050.42,419.54h-.07a4,4,0,0,1-3.92-4c.09-5.61.89-24.3,7.66-29.08a4,4,0,1,1,4.59,6.51c-2.08,1.47-4.12,12.28-4.28,22.69A4,4,0,0,1,1050.42,419.54Z" transform="translate(-1011.37 -112.93)"/><path class="cls-5" d="M1172.52,419.54a4,4,0,0,1-4-3.92c-.16-10.41-2.2-21.22-4.28-22.69a4,4,0,0,1,4.59-6.51c6.77,4.78,7.57,23.47,7.66,29.08a4,4,0,0,1-3.92,4Z" transform="translate(-1011.37 -112.93)"/><path class="cls-5" d="M1207.58,419.54H1015.35a4,4,0,0,1-2.86-1.21,4,4,0,0,1-1.12-2.91c.07-1.87,1.82-46,22.43-68.17,12.85-13.84,38.52-18.43,57.8-19.85a4,4,0,0,1,4.27,4c0,6.51,8.18,9,8.27,9a4,4,0,0,1,2.85,3.82v8.18a26.65,26.65,0,0,0,4.42.44,25.79,25.79,0,0,0,4.54-.44v-8.18a4,4,0,0,1,2.85-3.82c.32-.1,8.26-2.61,8.26-9a4,4,0,0,1,4.28-4c19.27,1.41,45,6,57.8,19.85,20.61,22.19,22.36,66.3,22.42,68.17a4,4,0,0,1-4,4.12Zm-188-8h183.72c-.94-11.23-4.86-42.59-20-58.91h0c-8.23-8.86-25.5-14.86-48.86-17-1.77,6.21-7.15,9.66-10.54,11.25v8.63a4,4,0,0,1-2.81,3.8,32.07,32.07,0,0,1-19.26,0,4,4,0,0,1-2.81-3.8V346.9c-3.39-1.6-8.78-5-10.54-11.25-23.36,2.16-40.63,8.16-48.86,17C1024.45,369,1020.54,400.36,1019.61,411.58Z" transform="translate(-1011.37 -112.93)"/><path class="cls-5" d="M1111.47,419.54a4,4,0,0,1-4-4V356.83a4,4,0,1,1,8,0v58.73A4,4,0,0,1,1111.47,419.54Z" transform="translate(-1011.37 -112.93)"/><path class="cls-10" d="M1069.68,340.9l-15.26-23.4,3,29S1066.1,350.19,1069.68,340.9Z" transform="translate(-1011.37 -112.93)"/><path class="cls-5" d="M1061.28,351.23a14.84,14.84,0,0,1-5.42-1,4,4,0,0,1-2.42-3.26l-3-29.05a4,4,0,0,1,7.3-2.58l15.26,23.4a4,4,0,0,1,.39,3.61c-1.86,4.82-4.9,7-7.13,7.91A12.66,12.66,0,0,1,1061.28,351.23Zm-.21-8a5.1,5.1,0,0,0,2.12-.36,4.53,4.53,0,0,0,1.92-1.72l-5-7.74Z" transform="translate(-1011.37 -112.93)"/><path class="cls-10" d="M1045.47,356.86,1020,345.41l18.2,22.83S1047.48,366.61,1045.47,356.86Z" transform="translate(-1011.37 -112.93)"/><path class="cls-5" d="M1038.18,372.22a4,4,0,0,1-3.11-1.5l-18.2-22.82a4,4,0,0,1,4.74-6.12l25.49,11.45a4,4,0,0,1,2.27,2.83c1,5.05-.36,8.5-1.72,10.5a14.27,14.27,0,0,1-8.78,5.6A4,4,0,0,1,1038.18,372.22Zm-4.84-16.44,6.16,7.72a5,5,0,0,0,1.59-1.45,4.54,4.54,0,0,0,.68-2.48Z" transform="translate(-1011.37 -112.93)"/><path class="cls-10" d="M1153.26,340.9l15.26-23.4-3,29S1156.84,350.19,1153.26,340.9Z" transform="translate(-1011.37 -112.93)"/><path class="cls-5" d="M1161.66,351.23a12.69,12.69,0,0,1-5-1c-2.23-.95-5.27-3.09-7.12-7.91a4,4,0,0,1,.38-3.61l15.26-23.4a4,4,0,0,1,7.3,2.58l-3,29.05a4,4,0,0,1-2.42,3.26A14.84,14.84,0,0,1,1161.66,351.23Zm-3.83-10.05a4.4,4.4,0,0,0,2,1.73,4.85,4.85,0,0,0,2.08.35l1-9.82Z" transform="translate(-1011.37 -112.93)"/><path class="cls-10" d="M1177.47,356.86,1203,345.41l-18.2,22.83S1175.46,366.61,1177.47,356.86Z" transform="translate(-1011.37 -112.93)"/><path class="cls-5" d="M1184.75,372.22a4,4,0,0,1-.68-.06,14.27,14.27,0,0,1-8.78-5.6c-1.36-2-2.76-5.45-1.72-10.5a4,4,0,0,1,2.27-2.83l25.49-11.45a4,4,0,0,1,4.74,6.12l-18.2,22.82A4,4,0,0,1,1184.75,372.22Zm-3.58-12.65a4.46,4.46,0,0,0,.68,2.48,5.1,5.1,0,0,0,1.59,1.45l6.16-7.72Z" transform="translate(-1011.37 -112.93)"/></g></g></svg>