<svg xmlns="http://www.w3.org/2000/svg" viewBox="0 0 200.2 305.98"><defs><style>.cls-1{isolation:isolate;}.cls-2{fill:#fdc795;}.cls-3,.cls-4{opacity:0.5;}.cls-3{mix-blend-mode:multiply;}.cls-4{mix-blend-mode:screen;}.cls-5{fill:#4f152a;}.cls-6{fill:#fff;}.cls-7{fill:#fbb040;}.cls-8{fill:#f15a29;}</style></defs><title>character3</title><g class="cls-1"><g id="Layer_1" data-name="Layer 1"><path class="cls-2" d="M841.75,321h0a55.83,55.83,0,0,1-19.58-3.47v28.71c4.31,10.94,19.57,10.62,19.58,10.62s15.26.32,19.57-10.62V317.5A55.78,55.78,0,0,1,841.75,321Z" transform="translate(-741.65 -113.56)"/><g class="cls-3"><path class="cls-2" d="M853.28,319.8v26.41c-2.9,7.35-10.72,9.61-15.56,10.3a28.78,28.78,0,0,0,4,.32s15.26.32,19.57-10.62V317.5A55.34,55.34,0,0,1,853.28,319.8Z" transform="translate(-741.65 -113.56)"/></g><g class="cls-4"><path class="cls-2" d="M829.68,319.8v26.41c2.9,7.35,10.72,9.61,15.55,10.3a28.69,28.69,0,0,1-4,.32s-15.26.32-19.58-10.62V317.5A55.48,55.48,0,0,0,829.68,319.8Z" transform="translate(-741.65 -113.56)"/></g><path class="cls-5" d="M841.87,360.81h-.37c-1.93,0-18-.42-23-13.14a3.87,3.87,0,0,1-.28-1.46V317.5a4,4,0,0,1,5.37-3.74,52.81,52.81,0,0,0,36.37,0,4,4,0,0,1,5.38,3.74v28.71a4.07,4.07,0,0,1-.28,1.46C860,360.39,844,360.81,841.87,360.81Zm-15.72-15.43c3.61,7.56,15.41,7.45,15.53,7.46.28,0,12.06.1,15.66-7.46V322.94a61.73,61.73,0,0,1-31.19,0Z" transform="translate(-741.65 -113.56)"/><path class="cls-6" d="M916.5,350c-12.13-13.07-37.39-17.28-55.18-18.59v14.84c-4.31,10.94-19.56,10.62-19.57,10.62s-15.27.32-19.58-10.62V331.37c-17.79,1.31-43,5.52-55.18,18.59-19.83,21.35-21.36,65.6-21.36,65.6H937.86S936.34,371.31,916.5,350Z" transform="translate(-741.65 -113.56)"/><path class="cls-5" d="M937.86,419.54H745.63a4,4,0,0,1-2.86-1.21,4,4,0,0,1-1.12-2.91c.07-1.87,1.82-46,22.42-68.17,12.85-13.84,38.53-18.43,57.81-19.85a4,4,0,0,1,4.27,4v14c3.61,7.56,15.41,7.45,15.53,7.46.28,0,12.06.1,15.66-7.46v-14a4,4,0,0,1,4.27-4c19.28,1.41,45,6,57.81,19.85,20.61,22.19,22.36,66.3,22.42,68.17a4,4,0,0,1-4,4.12Zm-188-8H933.61c-.94-11.23-4.87-42.59-20-58.91h0c-8.16-8.79-25.22-14.76-48.28-17v10.5a4.07,4.07,0,0,1-.28,1.46c-5.25,13.32-22.62,13.16-23.35,13.14s-18,.17-23.21-13.14a3.87,3.87,0,0,1-.28-1.46v-10.5c-23.07,2.2-40.13,8.17-48.28,17C754.75,369,750.83,400.35,749.89,411.58Z" transform="translate(-741.65 -113.56)"/><path class="cls-5" d="M780.69,419.54h-.06a4,4,0,0,1-3.92-4c.09-5.61.89-24.3,7.66-29.08a4,4,0,1,1,4.59,6.51c-2.08,1.47-4.12,12.28-4.29,22.69A4,4,0,0,1,780.69,419.54Z" transform="translate(-741.65 -113.56)"/><path class="cls-5" d="M902.8,419.54a4,4,0,0,1-4-3.92c-.16-10.41-2.2-21.22-4.29-22.69a4,4,0,0,1,4.6-6.51c6.77,4.78,7.57,23.47,7.66,29.08a4,4,0,0,1-3.93,4Z" transform="translate(-741.65 -113.56)"/><path class="cls-2" d="M772.33,255.8c0-3.8-.87-27.89,1.24-55h0S751,196.87,751,218s4.57,45,22.6,45h0A42.11,42.11,0,0,1,772.33,255.8Z" transform="translate(-741.65 -113.56)"/><path class="cls-2" d="M911.17,255.8c0-3.8.86-27.89-1.24-55h0s22.59-3.9,22.59,17.27-4.57,45-22.59,45h0A43.2,43.2,0,0,0,911.17,255.8Z" transform="translate(-741.65 -113.56)"/><path class="cls-5" d="M773.57,267C756.43,267,747,249.62,747,218c0-7.18,2.27-12.74,6.75-16.51,7.32-6.17,18-5,20.13-4.74h2.26a4,4,0,0,1,3.93,4.56c-3.7,25.12-3.75,54.09-3.75,54.45a44.31,44.31,0,0,0,1.14,6.32,4,4,0,0,1-3.88,4.89Zm-4.07-62.54c-3,0-7.53.52-10.65,3.17-2.62,2.22-3.9,5.62-3.9,10.4,0,13.57,1.9,35.29,13.6,40.06a18.42,18.42,0,0,1-.2-2.3,463.84,463.84,0,0,1,3.23-51.25C771,204.51,770.31,204.47,769.5,204.47Z" transform="translate(-741.65 -113.56)"/><path class="cls-5" d="M763.49,242a4,4,0,0,1-3.87-3c-2.55-10.29-1.76-17.81,2.33-22.34a13.25,13.25,0,0,1,11.24-4,4,4,0,0,1-1.08,7.89,5.32,5.32,0,0,0-4.29,1.55c-1.22,1.39-2.91,5.2-.47,15a4,4,0,0,1-3.86,4.94Z" transform="translate(-741.65 -113.56)"/><path class="cls-5" d="M920.49,242a4,4,0,0,1-3.87-4.94c2.44-9.84.75-13.65-.47-15a5.34,5.34,0,0,0-4.3-1.55,4,4,0,0,1-4.42-3.45,4,4,0,0,1,3.35-4.44,13.28,13.28,0,0,1,11.24,4c4.1,4.53,4.88,12.05,2.33,22.34A4,4,0,0,1,920.49,242Z" transform="translate(-741.65 -113.56)"/><path class="cls-2" d="M902,177.61c-14.11-48.82-60.26-48.82-60.26-48.82s-46.15,0-60.27,48.82c-11.38,39.4-9.15,72.09-9.15,78.19s15.26,77.05,69.42,77.05,69.42-71,69.42-77.05S913.4,217,902,177.61Z" transform="translate(-741.65 -113.56)"/><g class="cls-3"><path class="cls-2" d="M902,177.61c-14.11-48.82-60.26-48.82-60.26-48.82a45.44,45.44,0,0,0-5,.41c12.32,1.58,44,9.44,55.25,48.41,11.39,39.4,9.15,72.09,9.15,78.19,0,5.91-14.31,72.63-64.4,76.84,1.63.13,3.3.21,5,.21,54.16,0,69.42-71,69.42-77.05S913.4,217,902,177.61Z" transform="translate(-741.65 -113.56)"/></g><g class="cls-4"><path class="cls-2" d="M781.26,177.61c14.11-48.82,60.26-48.82,60.26-48.82a45.44,45.44,0,0,1,5,.41c-12.32,1.58-44,9.44-55.25,48.41-11.39,39.4-9.15,72.09-9.15,78.19,0,5.91,14.31,72.63,64.4,76.84-1.63.13-3.3.21-5,.21-54.16,0-69.42-71-69.42-77.05S769.87,217,781.26,177.61Z" transform="translate(-741.65 -113.56)"/></g><path class="cls-5" d="M841.75,336.83c-56.45,0-73.4-73.14-73.4-81,0-.59,0-1.45-.05-2.54a250.58,250.58,0,0,1,9.36-76.75c14.77-51.11,63.6-51.7,64.09-51.7s49.31.59,64.09,51.7h0a250.58,250.58,0,0,1,9.36,76.75c0,1.09-.05,2-.05,2.54C915.15,263.69,898.2,336.83,841.75,336.83Zm0-204.06c-1.75,0-43.35.7-56.43,45.95a242.81,242.81,0,0,0-9,74.33c0,1.19,0,2.11,0,2.75.05,7.11,15.49,73.06,65.44,73.06s65.39-65.95,65.43-73.06c0-.64,0-1.56.06-2.75a243.14,243.14,0,0,0-9-74.33h0C885.11,133.47,843.5,132.78,841.74,132.77Z" transform="translate(-741.65 -113.56)"/><path class="cls-5" d="M909.93,267a4,4,0,0,1-3.88-4.89,41.72,41.72,0,0,0,1.13-6.32v-.47a388.35,388.35,0,0,0-3.75-54,4,4,0,0,1,3.94-4.55h2.26c2.16-.3,12.8-1.43,20.12,4.74,4.48,3.77,6.76,9.33,6.76,16.51C936.51,249.62,927.07,267,909.93,267Zm2-62.46a396.37,396.37,0,0,1,3.24,50.79v.46a16.71,16.71,0,0,1-.21,2.29c11.7-4.77,13.6-26.48,13.6-40,0-4.78-1.27-8.18-3.9-10.4C920.69,204.29,914.57,204.34,911.91,204.55Z" transform="translate(-741.65 -113.56)"/><circle class="cls-5" cx="871.08" cy="230.08" r="7.96" transform="translate(-649.21 569.77) rotate(-45)"/><path class="cls-5" d="M812.42,222.12a8,8,0,1,0,8,8A8,8,0,0,0,812.42,222.12Z" transform="translate(-741.65 -113.56)"/><path class="cls-5" d="M845,270.33c-9.4,0-14.18-5.83-15.46-9.24a4,4,0,0,1,.54-3.78c3.28-4.38,6.74-16.1,7.79-20.25a4,4,0,0,1,7.72,2c-.38,1.51-3.52,13.57-7.62,20.72,1.28,1.39,4,3.16,9.22,2.48a4,4,0,0,1,1,7.9A26.19,26.19,0,0,1,845,270.33Z" transform="translate(-741.65 -113.56)"/><path class="cls-5" d="M842.52,298.08h0c-12.76,0-25.37-5-32.91-13a4,4,0,1,1,5.79-5.47c6.09,6.46,16.48,10.47,27.12,10.47,10.18,0,19.29-3.71,25.66-10.47a4,4,0,0,1,5.79,5.47C866.08,293.47,854.91,298.08,842.52,298.08Z" transform="translate(-741.65 -113.56)"/><path class="cls-5" d="M795.36,219.92a4,4,0,0,1-3.61-5.65,23.55,23.55,0,0,1,41.34,0,4,4,0,0,1-7.24,3.33,15.63,15.63,0,0,0-26.87,0A4,4,0,0,1,795.36,219.92Z" transform="translate(-741.65 -113.56)"/><path class="cls-5" d="M854,219.92a3.88,3.88,0,0,1-1.65-.37,4,4,0,0,1-2-5.28,23.55,23.55,0,0,1,41.34,0,4,4,0,0,1-7.24,3.33,15.62,15.62,0,0,0-26.86,0A4,4,0,0,1,854,219.92Z" transform="translate(-741.65 -113.56)"/><path class="cls-7" d="M841.75,117.83c-7.22-.77-94.55-7.61-68.37,115.22,0,0,13.38-61.05,28.64-61.72,15.08-.65,11.86,9.36,39.24,9.59v0h1v0c27.39-.23,24.16-10.24,39.24-9.59,15.27.67,28.64,61.72,28.64,61.72C936.3,110.22,849,117.06,841.75,117.83Z" transform="translate(-741.65 -113.56)"/><g class="cls-3"><path class="cls-7" d="M841.75,117.83c-3.1-.33-20.92-1.76-38.21,6.37a78.83,78.83,0,0,1,29.89-3.13c6.77-.72,84-6.78,72,93.78,3,10.22,4.7,18.2,4.7,18.2C936.3,110.22,849,117.06,841.75,117.83Z" transform="translate(-741.65 -113.56)"/></g><g class="cls-4"><path class="cls-7" d="M840.63,117.83c3.09-.33,20.91-1.76,38.2,6.37a78.82,78.82,0,0,0-29.89-3.13c-6.76-.72-84-6.78-72,93.78-3,10.22-4.71,18.2-4.71,18.2C746.07,110.22,833.41,117.06,840.63,117.83Z" transform="translate(-741.65 -113.56)"/></g><path class="cls-5" d="M773.38,237h0a4,4,0,0,1-3.88-3.16c-9.67-45.36-5.23-78.72,13.19-99.17,21.06-23.37,53.66-21.39,59.07-20.88,5.4-.51,38-2.5,59.07,20.88,18.42,20.45,22.86,53.81,13.18,99.17a4,4,0,0,1-3.88,3.16h0a4,4,0,0,1-3.89-3.13c-6.15-28-17.62-58.28-24.92-58.6-5.44-.23-7.75,1.06-11.23,3-5,2.85-11.28,6.38-27.49,6.56l-.35,0h-1l-.35,0c-16.21-.18-22.46-3.71-27.48-6.56-3.48-2-5.79-3.27-11.24-3-7.29.32-18.77,30.55-24.92,58.6A4,4,0,0,1,773.38,237ZM835.2,121.51c-10.58,0-31.91,2.23-46.61,18.54-14.14,15.7-19,40.51-14.52,73.9,5.67-20,15.42-46.06,27.78-46.59,7.74-.36,11.68,1.89,15.5,4,4.48,2.54,9.56,5.41,23.95,5.53h.9c14.39-.12,19.46-3,23.95-5.53,3.82-2.16,7.77-4.4,15.5-4C894,167.89,903.76,194,909.42,214c4.49-33.39-.37-58.2-14.52-73.9-19.07-21.17-49.34-18.62-52.73-18.26a3.93,3.93,0,0,1-.84,0A61.21,61.21,0,0,0,835.2,121.51Z" transform="translate(-741.65 -113.56)"/><polygon class="cls-6" points="70.85 236.69 87.82 263.67 98.85 243.27 80.52 225.34 70.85 236.69"/><polygon class="cls-6" points="118.47 225.34 100.14 243.27 111.17 263.67 128.14 236.69 118.47 225.34"/><path class="cls-5" d="M829.47,381.21a4,4,0,0,1-3.37-1.86l-17-27a4,4,0,0,1,.34-4.71l9.67-11.35a4,4,0,0,1,2.85-1.39,3.93,3.93,0,0,1,3,1.13L843.29,354a4,4,0,0,1,.72,4.74l-11,20.41a4,4,0,0,1-3.37,2.08Zm-12-30.6,11.78,18.73,6.36-11.76-13.13-12.85Z" transform="translate(-741.65 -113.56)"/><path class="cls-5" d="M852.82,381.21h-.13a4,4,0,0,1-3.37-2.08l-11-20.41A4,4,0,0,1,839,354l18.33-17.92a4,4,0,0,1,5.81.26l9.67,11.35a4,4,0,0,1,.34,4.71l-17,27A4,4,0,0,1,852.82,381.21Zm-6.1-23.63,6.36,11.76,11.78-18.73-5-5.88Z" transform="translate(-741.65 -113.56)"/><polygon class="cls-8" points="107.21 256.35 100.15 243.3 100.15 243.21 93.08 256.29 100.14 265.42 100.14 265.5 107.21 256.35"/><polygon class="cls-8" points="103.41 261.15 100.12 265.39 96.84 261.15 90.64 302 100.1 302 100.15 302 109.6 302 103.41 261.15"/><path class="cls-5" d="M841.79,383a4.15,4.15,0,0,1-1.29-.21,4,4,0,0,1-2.19-1.84l-6.73-8.71a4,4,0,0,1-.35-4.33l7.07-13.07a4,4,0,0,1,7.25.53l6.81,12.6a4,4,0,0,1-.35,4.33l-7.07,9.15A4,4,0,0,1,841.79,383Zm-2.32-13.58,2.35,3.05,2.31-3-2.35-4.33Z" transform="translate(-741.65 -113.56)"/><path class="cls-5" d="M851.25,419.54h-19a4,4,0,0,1-3.94-4.58l6.2-40.85a4,4,0,0,1,7.09-1.84l.13.18.14-.18a4,4,0,0,1,7.08,1.84l6.2,40.85a3.93,3.93,0,0,1-.92,3.19A4,4,0,0,1,851.25,419.54Zm-14.33-8h9.7l-4.35-28.68a4,4,0,0,1-.5,0h0a4.21,4.21,0,0,1-.5,0Z" transform="translate(-741.65 -113.56)"/></g></g></svg>