<svg xmlns="http://www.w3.org/2000/svg" viewBox="0 0 214.02 306.61"><defs><style>.cls-1{isolation:isolate;}.cls-2{fill:#f26b46;}.cls-3,.cls-4{opacity:0.5;}.cls-3{mix-blend-mode:multiply;}.cls-4{mix-blend-mode:screen;}.cls-5{fill:#4f152a;}.cls-6{fill:#fdc795;}.cls-7{fill:#f069a7;}</style></defs><title>character6</title><g class="cls-1"><g id="Layer_1" data-name="Layer 1"><path class="cls-2" d="M371.35,746.61c-2.49-35.83-18-46.88-18-46.88l-84.51,10.82L184.3,699.73s-15.53,11-18,46.88,3.64,48.12,30.69,48.12H340.66C367.72,794.73,373.84,782.45,371.35,746.61Z" transform="translate(-161.81 -560.46)"/><g class="cls-3"><path class="cls-2" d="M256.54,710.55l6.14-.78-78.38-10a16.56,16.56,0,0,0-1.56,1.37Z" transform="translate(-161.81 -560.46)"/><path class="cls-2" d="M371.35,746.61c-2.49-35.83-18-46.88-18-46.88l-10.71,1.37c4,3.89,14.45,16.67,16.46,45.51,2.49,35.84-3.64,48.12-30.69,48.12h12.27C367.72,794.73,373.84,782.45,371.35,746.61Z" transform="translate(-161.81 -560.46)"/></g><g class="cls-4"><path class="cls-2" d="M281.11,710.55l-6.13-.78,78.37-10a15.71,15.71,0,0,1,1.57,1.37Z" transform="translate(-161.81 -560.46)"/><path class="cls-2" d="M166.3,746.61c2.49-35.83,18-46.88,18-46.88L195,701.1c-4,3.89-14.45,16.67-16.45,45.51-2.49,35.84,3.63,48.12,30.69,48.12H197C169.94,794.73,163.81,782.45,166.3,746.61Z" transform="translate(-161.81 -560.46)"/></g><path class="cls-5" d="M340.66,798.71H197c-12.83,0-21.39-2.76-26.93-8.69-7.11-7.63-9.35-20.29-7.73-43.68,2.59-37.29,19-49.36,19.69-49.86a4,4,0,0,1,2.81-.7l84,10.76,84-10.76a4,4,0,0,1,2.81.7c.7.5,17.1,12.57,19.69,49.86,1.62,23.39-.62,36-7.74,43.68C362.06,796,353.5,798.71,340.66,798.71ZM185.57,703.9c-3.29,3.22-13.39,15.24-15.32,43-1.43,20.67.25,31.94,5.62,37.69,3.92,4.21,10.63,6.17,21.1,6.17H340.66c10.48,0,17.18-2,21.11-6.17,5.37-5.75,7.05-17,5.61-37.69-1.95-28.06-12-39.82-15.29-43l-82.77,10.6a4.27,4.27,0,0,1-1,0Z" transform="translate(-161.81 -560.46)"/><path class="cls-6" d="M268.82,768.5h0A55.61,55.61,0,0,1,249.24,765v28.72c4.31,10.94,19.57,10.61,19.58,10.61s15.26.33,19.57-10.61V765A55.55,55.55,0,0,1,268.82,768.5Z" transform="translate(-161.81 -560.46)"/><g class="cls-3"><path class="cls-6" d="M280.35,767.32v26.42c-2.9,7.35-10.72,9.61-15.56,10.3a27.72,27.72,0,0,0,4,.31s15.26.33,19.57-10.61V765A52.94,52.94,0,0,1,280.35,767.32Z" transform="translate(-161.81 -560.46)"/></g><g class="cls-4"><path class="cls-6" d="M256.75,767.32v26.42c2.9,7.35,10.72,9.61,15.55,10.3a27.63,27.63,0,0,1-4,.31s-15.26.33-19.58-10.61V765A53.06,53.06,0,0,0,256.75,767.32Z" transform="translate(-161.81 -560.46)"/></g><path class="cls-5" d="M268.94,808.34h-.37c-1.95,0-18-.42-23-13.15a3.78,3.78,0,0,1-.28-1.45V765a4,4,0,0,1,5.37-3.73,53,53,0,0,0,36.37,0,4,4,0,0,1,5.38,3.73v28.72a4,4,0,0,1-.28,1.45C287.09,807.92,271,808.34,268.94,808.34Zm-15.72-15.43c3.61,7.56,15.4,7.47,15.52,7.46.29,0,12.07.1,15.67-7.46V770.46a61.5,61.5,0,0,1-31.19,0Z" transform="translate(-161.81 -560.46)"/><path class="cls-7" d="M343.57,797.48c-12.13-13.06-37.39-17.28-55.18-18.58v14.84c-4.31,10.94-19.56,10.61-19.57,10.61s-15.27.33-19.58-10.61V778.9c-17.79,1.31-43,5.52-55.18,18.58-19.83,21.36-21.36,65.61-21.36,65.61H364.93S363.41,818.84,343.57,797.48Z" transform="translate(-161.81 -560.46)"/><g class="cls-3"><path class="cls-7" d="M335.26,801.72c16.11,17.35,20.14,49.8,21.09,61.37h8.58s-1.52-44.25-21.36-65.61c-12.13-13.06-37.39-17.28-55.18-18.58v5C305.05,785.88,324.92,790.58,335.26,801.72Z" transform="translate(-161.81 -560.46)"/></g><g class="cls-4"><path class="cls-7" d="M202.38,801.72c-16.12,17.35-20.14,49.8-21.09,61.37H172.7s1.53-44.25,21.36-65.61c12.14-13.06,37.39-17.28,55.18-18.58v5C232.58,785.88,212.72,790.58,202.38,801.72Z" transform="translate(-161.81 -560.46)"/></g><path class="cls-5" d="M364.93,867.07H172.7a4,4,0,0,1-4-4.12c.07-1.87,1.82-46,22.42-68.18C204,780.93,229.67,776.34,249,774.93a4,4,0,0,1,4.27,4v14c3.61,7.56,15.4,7.47,15.52,7.46.29,0,12.07.1,15.67-7.46v-14a4,4,0,0,1,4.27-4c19.28,1.41,45,6,57.81,19.84C367.1,817,368.85,861.08,368.91,863a4,4,0,0,1-1.11,2.9A4,4,0,0,1,364.93,867.07Zm-188-8H360.68c-.94-11.23-4.86-42.59-20-58.92h0c-8.16-8.78-25.22-14.75-48.28-17v10.51a4,4,0,0,1-.28,1.45c-5.25,13.32-22.64,13.16-23.36,13.14s-18,.19-23.2-13.14a3.78,3.78,0,0,1-.28-1.45V783.23c-23.07,2.21-40.12,8.18-48.28,17C181.8,816.54,177.89,847.88,177,859.11Z" transform="translate(-161.81 -560.46)"/><path class="cls-5" d="M207.76,867.07a4,4,0,0,1-3.74-2.61c-3.46-9.45-4.43-29.94,16.73-39.82a4,4,0,0,1,3.37,7.21c-19.9,9.3-12.93,29-12.62,29.87a4,4,0,0,1-2.37,5.11A4.08,4.08,0,0,1,207.76,867.07Z" transform="translate(-161.81 -560.46)"/><path class="cls-5" d="M330.43,867.07a4.16,4.16,0,0,1-1.37-.24,4,4,0,0,1-2.37-5.1c.31-.88,7.13-20.65-12.62-29.88a4,4,0,1,1,3.38-7.21c21.16,9.88,20.19,30.37,16.72,39.82A4,4,0,0,1,330.43,867.07Z" transform="translate(-161.81 -560.46)"/><path class="cls-6" d="M199.4,703.33c0-3.81-.87-27.89,1.24-55h0S178,644.4,178,665.57s4.57,45,22.6,45h0A42.26,42.26,0,0,1,199.4,703.33Z" transform="translate(-161.81 -560.46)"/><path class="cls-6" d="M338.24,703.33c0-3.81.87-27.89-1.24-55h0s22.59-3.9,22.59,17.27-4.57,45-22.59,45h0A43.36,43.36,0,0,0,338.24,703.33Z" transform="translate(-161.81 -560.46)"/><path class="cls-5" d="M200.64,714.53c-17.14,0-26.58-17.39-26.58-49,0-7.18,2.27-12.74,6.75-16.52,7.32-6.15,18-5,20.13-4.73h2.25a4,4,0,0,1,3.94,4.56c-3.7,25.11-3.75,54.09-3.75,54.45a44.31,44.31,0,0,0,1.14,6.32,4,4,0,0,1-3.88,4.88ZM196.57,652c-3,0-7.53.52-10.65,3.17-2.62,2.22-3.9,5.62-3.9,10.4,0,13.57,1.9,35.28,13.6,40a18.13,18.13,0,0,1-.2-2.29,463.71,463.71,0,0,1,3.23-51.25C198.09,652,197.38,652,196.57,652Z" transform="translate(-161.81 -560.46)"/><path class="cls-5" d="M190.56,689.56a4,4,0,0,1-3.87-3c-2.55-10.29-1.76-17.81,2.33-22.34a13.25,13.25,0,0,1,11.24-4.05,4,4,0,0,1-1.08,7.89,5.32,5.32,0,0,0-4.29,1.55c-1.22,1.39-2.91,5.19-.47,15a4,4,0,0,1-3.86,4.95Z" transform="translate(-161.81 -560.46)"/><path class="cls-5" d="M347.56,689.56a4,4,0,0,1-3.87-4.94c2.44-9.85.76-13.65-.47-15a5.33,5.33,0,0,0-4.3-1.55,4,4,0,0,1-4.42-3.45,3.94,3.94,0,0,1,3.35-4.44,13.25,13.25,0,0,1,11.24,4.05c4.1,4.53,4.88,12,2.33,22.34A4,4,0,0,1,347.56,689.56Z" transform="translate(-161.81 -560.46)"/><path class="cls-6" d="M329.08,625.14c-14.11-48.82-60.26-48.82-60.26-48.82s-46.15,0-60.27,48.82c-11.38,39.39-9.15,72.09-9.15,78.19s15.26,77,69.42,77,69.42-70.94,69.42-77S340.47,664.53,329.08,625.14Z" transform="translate(-161.81 -560.46)"/><g class="cls-3"><path class="cls-6" d="M329.08,625.14c-14.11-48.82-60.26-48.82-60.26-48.82a43.56,43.56,0,0,0-5,.4c12.32,1.59,44,9.44,55.25,48.42,11.39,39.39,9.15,72.09,9.15,78.19,0,5.91-14.31,72.63-64.4,76.83q2.44.21,5,.21c54.16,0,69.42-70.94,69.42-77S340.47,664.53,329.08,625.14Z" transform="translate(-161.81 -560.46)"/></g><g class="cls-4"><path class="cls-6" d="M208.33,625.14c14.11-48.82,60.26-48.82,60.26-48.82a43.56,43.56,0,0,1,5,.4c-12.32,1.59-44,9.44-55.25,48.42-11.39,39.39-9.15,72.09-9.15,78.19,0,5.91,14.31,72.63,64.4,76.83q-2.44.21-5,.21c-54.16,0-69.42-70.94-69.42-77S196.94,664.53,208.33,625.14Z" transform="translate(-161.81 -560.46)"/></g><path class="cls-5" d="M268.82,784.36c-56.45,0-73.4-73.14-73.4-81,0-.59,0-1.45,0-2.54A250.66,250.66,0,0,1,204.73,624c14.77-51.1,63.6-51.69,64.09-51.69s49.31.59,64.09,51.69h0a250.66,250.66,0,0,1,9.36,76.76c0,1.09,0,2,0,2.54C342.22,711.22,325.27,784.36,268.82,784.36Zm0-204.06c-1.76,0-43.36.7-56.44,45.94a242.89,242.89,0,0,0-9,74.34c0,1.19,0,2.11,0,2.75.05,7.11,15.49,73.06,65.44,73.06s65.39-65.95,65.43-73.06c0-.64,0-1.57.06-2.75a243.19,243.19,0,0,0-9.05-74.34C312.13,580.82,269.25,580.3,268.82,580.3Z" transform="translate(-161.81 -560.46)"/><path class="cls-5" d="M337,714.53a4,4,0,0,1-3.88-4.88,41.94,41.94,0,0,0,1.13-6.32v-.48a388.35,388.35,0,0,0-3.75-54,4,4,0,0,1,3.94-4.54h2.26c2.17-.31,12.81-1.43,20.12,4.73,4.48,3.78,6.76,9.34,6.76,16.52C363.58,697.14,354.14,714.53,337,714.53Zm2-62.45a396.33,396.33,0,0,1,3.24,50.78v.47a16.71,16.71,0,0,1-.21,2.29c11.7-4.77,13.6-26.48,13.6-40,0-4.79-1.28-8.2-3.92-10.42C347.75,651.83,341.64,651.87,339,652.08Z" transform="translate(-161.81 -560.46)"/><path class="cls-5" d="M298.15,669.65a8,8,0,1,0,8,8A8,8,0,0,0,298.15,669.65Z" transform="translate(-161.81 -560.46)"/><path class="cls-5" d="M239.49,669.65a8,8,0,1,0,8,8A8,8,0,0,0,239.49,669.65Z" transform="translate(-161.81 -560.46)"/><path class="cls-5" d="M272.09,717.86c-9.4,0-14.18-5.83-15.46-9.24a4,4,0,0,1,.54-3.78c3.28-4.38,6.74-16.1,7.79-20.25a4,4,0,0,1,7.72,2c-.39,1.51-3.52,13.57-7.62,20.72,1.28,1.38,4,3.16,9.22,2.48a4,4,0,0,1,1,7.89A24.43,24.43,0,0,1,272.09,717.86Z" transform="translate(-161.81 -560.46)"/><path class="cls-5" d="M267.71,750.39l-1.18,0c-10.65-.42-20.76-6.46-30-18a4,4,0,1,1,6.19-5c7.79,9.64,15.92,14.69,24.17,15,9,.35,18.55-4.78,28.41-15.24a4,4,0,1,1,5.8,5.46C289.93,744.42,278.72,750.39,267.71,750.39Z" transform="translate(-161.81 -560.46)"/><path class="cls-5" d="M222.43,667.45a4,4,0,0,1-3.61-5.65,23.55,23.55,0,0,1,41.34,0,4,4,0,0,1-7.24,3.33,15.63,15.63,0,0,0-26.87,0A4,4,0,0,1,222.43,667.45Z" transform="translate(-161.81 -560.46)"/><path class="cls-5" d="M281.09,667.45a3.88,3.88,0,0,1-1.65-.37,4,4,0,0,1-2-5.28,23.55,23.55,0,0,1,41.34,0,4,4,0,0,1-7.24,3.33,15.62,15.62,0,0,0-26.86,0A4,4,0,0,1,281.09,667.45Z" transform="translate(-161.81 -560.46)"/><path class="cls-2" d="M285.67,582s-21.92,74.93-81.44,64.3c0,0-12.41-13.34-4.78-37.73,11.3-36.15,45.3-44.11,70.28-44.11S353,594.06,334.44,648.3c0,0-31.11-9.2-33.36-32.31C298.56,590.07,285.67,582,285.67,582Z" transform="translate(-161.81 -560.46)"/><g class="cls-4"><path class="cls-2" d="M213.32,646.28s-12.41-13.34-4.78-37.73c10.43-33.36,40.18-42.71,64.35-43.95-1.1-.1-2.16-.16-3.16-.16-25,0-59,8-70.28,44.11-7.63,24.39,4.78,37.73,4.78,37.73a62.29,62.29,0,0,0,15.91.85A64.45,64.45,0,0,1,213.32,646.28Z" transform="translate(-161.81 -560.46)"/></g><g class="cls-3"><path class="cls-2" d="M269.73,564.44q-3.48,0-7.16.22c25.88,2.61,75.87,30.47,62.13,79.62a65.24,65.24,0,0,0,9.74,4C353,594.06,294.7,564.44,269.73,564.44Z" transform="translate(-161.81 -560.46)"/></g><path class="cls-5" d="M334.44,652.28a4.06,4.06,0,0,1-1.13-.16c-1.37-.41-33.71-10.25-36.19-35.75-1.41-14.48-6.26-22.91-9.76-27.24-7,18.14-31.91,70.35-83.83,61.07a4,4,0,0,1-2.21-1.21c-.58-.61-13.89-15.34-5.67-41.63,12.76-40.81,51.89-46.9,74.08-46.9,17.87,0,46.37,12.9,61.26,33.75,11.59,16.22,14.08,35.37,7.22,55.38A4,4,0,0,1,334.44,652.28Zm-128-9.68c54.17,8.42,74.61-58.85,75.46-61.74a4,4,0,0,1,5.94-2.25c.59.37,14.58,9.44,17.26,37,1.53,15.75,19,24.44,26.83,27.55,4.53-16.22,2.06-31.11-7.37-44.32-14.18-19.84-40.92-30.41-54.78-30.41-20,0-55.24,5.37-66.48,41.32C197.5,628.14,204,639.34,206.39,642.6Z" transform="translate(-161.81 -560.46)"/></g></g></svg>