<svg id="Card_Front" xmlns="http://www.w3.org/2000/svg" viewBox="0 0 549 801"><defs><style>.cls-1{fill:#fff;}.cls-1,.cls-2{stroke:#231f20;stroke-miterlimit:10;}.cls-2{fill:#ed1c24;}.cls-3{fill:#231f20;}</style></defs><title>2</title><path class="cls-1" d="M543.5,16H54.5A29.5,29.5,0,0,0,25,45.5v741A29.5,29.5,0,0,0,54.5,816h489A29.5,29.5,0,0,0,573,786.5V45.5A29.5,29.5,0,0,0,543.5,16ZM554,769.5A29.5,29.5,0,0,1,524.5,799H73.5A29.5,29.5,0,0,1,44,769.5V62.5A29.5,29.5,0,0,1,73.5,33h451A29.5,29.5,0,0,1,554,62.5Z" transform="translate(-24.5 -15.5)"/><path class="cls-2" d="M524.5,33H73.5A29.5,29.5,0,0,0,44,62.5v707A29.5,29.5,0,0,0,73.5,799h451A29.5,29.5,0,0,0,554,769.5V62.5A29.5,29.5,0,0,0,524.5,33ZM524,598a43,43,0,0,1-43,43H117a43,43,0,0,1-43-43V234a43,43,0,0,1,43-43H481a43,43,0,0,1,43,43Z" transform="translate(-24.5 -15.5)"/><rect class="cls-1" x="49.5" y="175.5" width="450" height="450" rx="47.5"/><path class="cls-3" d="M377,349.6c0,26.8-20,59.2-49.6,90.8l-86,91.2H393V562H200.64V535.6l104.8-114C329,398,343.84,372,343.84,354c0-27.2-20.8-43.6-56-43.6-25.6,0-54,13.2-76.4,34.8l-14-25.6c27.2-24.4,61.2-38.8,94.4-38.8C343.44,280.8,377,307.6,377,349.6Z" transform="translate(-24.5 -15.5)"/></svg>