<svg id="Card_Front" xmlns="http://www.w3.org/2000/svg" viewBox="0 0 549 801"><defs><style>.cls-1{fill:#fff;}.cls-1,.cls-2{stroke:#231f20;stroke-miterlimit:10;}.cls-2{fill:#ed1c24;}.cls-3{fill:#010101;}</style></defs><title>Draw2</title><rect class="cls-1" x="0.5" y="0.5" width="548" height="800" rx="29.5"/><rect class="cls-2" x="19.5" y="17.5" width="510" height="766" rx="29.5"/><rect class="cls-1" x="49.5" y="175.5" width="450" height="450" rx="43"/><path class="cls-3" d="M382.69,331.26a34.48,34.48,0,0,0-15.37,3.59,34.75,34.75,0,0,0-36.94-18.55l9.26-52.52a34.79,34.79,0,0,0-68.54-12l-9.71,55.06-6.54-53.26A34.79,34.79,0,0,0,185.78,262L202.37,397.1a42.56,42.56,0,0,0-24.58,38.54v43.88a79.37,79.37,0,0,0,46.39,72.26v55.51a11.6,11.6,0,0,0,11.6,11.6H375a11.6,11.6,0,0,0,11.6-11.6V550.62a67.16,67.16,0,0,0,30.93-56.78V366.05a34.83,34.83,0,0,0-34.8-34.79Zm0,23.19a11.61,11.61,0,0,1,11.6,11.6V397a11.6,11.6,0,1,1-23.2,0V366.05A11.61,11.61,0,0,1,382.69,354.45Zm-34.79-3.86V397a11.6,11.6,0,1,1-23.2,0V350.59a11.6,11.6,0,0,1,23.2,0Zm-54-94.8a11.6,11.6,0,0,1,22.86,4L293.28,393.11H269.73l1-5.73s0-.08,0-.11Zm-75-9.5a11.59,11.59,0,0,1,12.92,10.1L247.61,385l-1.43,8.16H225.25l-16.45-134A11.58,11.58,0,0,1,218.91,246.29ZM369.77,533.52a11.6,11.6,0,0,0-6.41,10.38v51.79h-116V543.9a11.6,11.6,0,0,0-7.93-11A56.18,56.18,0,0,1,201,479.52V435.64a19.35,19.35,0,0,1,19.33-19.33h80.91a27.11,27.11,0,0,1-26.79,23.2H251.25a11.6,11.6,0,1,0,0,23.19A50.31,50.31,0,0,1,301.5,513a11.6,11.6,0,1,0,23.2,0,73.36,73.36,0,0,0-26.35-56.32,50.46,50.46,0,0,0,23.64-28,34.72,34.72,0,0,0,37.51-5.79,34.75,34.75,0,0,0,34.79,6.89v64.06a44.13,44.13,0,0,1-24.52,39.68Z" transform="translate(-24.5 -15.5)"/></svg>