<svg id="Card_Front" xmlns="http://www.w3.org/2000/svg" viewBox="0 0 549 801"><defs><style>.cls-1{fill:#fff;}.cls-1,.cls-2{stroke:#231f20;stroke-miterlimit:10;}.cls-2{fill:#ed1c24;}.cls-3{fill:#010101;}</style></defs><title>Switch_Direction</title><rect class="cls-1" x="0.5" y="0.5" width="548" height="800" rx="29.5"/><rect class="cls-2" x="19.5" y="17.5" width="510" height="766" rx="29.5"/><rect class="cls-1" x="49.5" y="175.5" width="450" height="450" rx="43"/><path class="cls-3" d="M251.72,256.8a166,166,0,0,0-91.16,67.56,45.15,45.15,0,0,0-5.43,17.26V283.3H133v88.53h88.53V349.7h-50A145.87,145.87,0,0,1,299,271.13a145.75,145.75,0,0,1,137.89,103.8l21.25-6.3A166,166,0,0,0,251.72,256.8Z" transform="translate(-24.5 -15.5)"/><path class="cls-3" d="M376.47,460.37V482.5h50A145.87,145.87,0,0,1,299,561.07a145.75,145.75,0,0,1-137.89-103.8l-21.25,6.31a166,166,0,0,0,299.47,41.05,30.46,30.46,0,0,0,3.54-14.05V548.9H465V460.37Z" transform="translate(-24.5 -15.5)"/></svg>